<?xml version="1.0" encoding="utf-8"?>
<svg viewBox="0 0 500 500" xmlns="http://www.w3.org/2000/svg">
  <path style="fill: rgb(216, 216, 216); stroke: rgb(0, 0, 0);" d="
    M 105.399 138.846 
    C 96.694 165.678 79.194 188.337 95.552 217.162 
    C 100.321 225.566 108.015 236.753 116.673 241.725 
    C 126.041 247.104 138.309 246.86 148.666 246.926 
    C 179.607 247.126 202.913 236.763 211.187 204.683 
    C 213.581 195.402 219.54 174.31 213.865 164.683 
    C 205.693 150.823 181.45 137.684 166.023 135.049 
    C 153.536 132.916 143.235 139.397 131.89 130.838 
    C 121.205 122.777 114.667 114.407 107.203 103.472 
    C 104.926 100.136 100.907 92.477 98.787 88.214 
    C 97.849 86.328 97.21 81.531 95.53 82.801 
    C 81.856 93.135 72.71 113.057 64.446 127.505  
  "/>
  <!-- 
   -->
  <path style="fill: rgb(216, 216, 216); stroke: rgb(0, 0, 0);" d="
  "/>
  <!-- 
    M 258.339 124.56 
    C 244.086 126.264 229.171 129.185 215.686 134.126 
    C 201.002 139.506 189.335 148.086 177.291 157.814 
    C 170.579 163.236 164.021 170.431 166.346 179.93 
    C 169.13 191.303 183.008 201.08 190.514 209.503
    C 196.03 215.691 200.909 223.79 208.117 228.235 
    C 215.476 232.774 225.425 233.387 233.643 234.746 
    C 248.84 237.259 263.886 240.09 278.972 243.163
    C 292.115 245.841 305.367 244.099 318.592 242.588 
    C 326.354 241.701 335.668 240.17 340.498 233.145 
    C 344.738 226.979 344.575 218.265 344.451 211.173 
    C 344.14 193.446 339.116 177.131 334.356 160.479
   -->
</svg>
