<?xml version="1.0" encoding="UTF-8" standalone="no"?>
<!DOCTYPE svg PUBLIC "-//W3C//DTD SVG 1.1//EN" "http://www.w3.org/Graphics/SVG/1.1/DTD/svg11.dtd">
<svg width="100%" height="100%" viewBox="0 0 4500 4500" version="1.1" xmlns="http://www.w3.org/2000/svg" xmlns:xlink="http://www.w3.org/1999/xlink" xml:space="preserve" xmlns:serif="http://www.serif.com/" style="fill-rule:evenodd;clip-rule:evenodd;stroke-linecap:round;stroke-linejoin:round;stroke-miterlimit:1.5;">
    <g id="Extended-North" serif:id="Extended North">
        <path d="M2250,364.322l0,258.27" style="fill:none;stroke:#000;stroke-width:3px;stroke-dasharray:29.97,20.98,59.94,29.97;"/>
    </g>
    <g id="Horizon">
        <path d="M2250,1607.87c355.538,0 644.182,288.644 644.182,644.182c-0,355.53 -288.644,644.182 -644.182,644.182c-355.53,0 -644.182,-288.652 -644.182,-644.182c0,-355.538 288.652,-644.182 644.182,-644.182Zm-0,41.813c-332.455,-0 -602.37,269.914 -602.37,602.369c0,332.455 269.915,602.37 602.37,602.37c332.455,-0 602.369,-269.915 602.369,-602.37c0,-332.455 -269.914,-602.369 -602.369,-602.369Z" style="fill:#666667;stroke:#000;stroke-width:3px;stroke-linecap:butt;stroke-miterlimit:2;"/>
    </g>
    <g id="Cardinal-Visible" serif:id="Cardinal Visible">
        <path d="M1338.52,1875.38l363.346,150.154" style="fill:none;stroke:#000;stroke-width:3px;"/>
        <path d="M2728.39,2053.47l432.475,-179.552" style="fill:none;stroke:#000;stroke-width:3px;"/>
    </g>
    <g id="NNE-Assegai" serif:id="NNE Assegai">
        <path d="M2512.86,1602.31l29.257,-16.671l-708.09,1737.44c-17.741,-0.438 -30.507,-7.042 -36.852,-21.646l711.928,-1734.64l3.608,35.496l-13.26,-145.871l63.882,21.592l-50.611,124.384l0.013,-0.008l59.89,-121.742l53.429,54.76l-113.194,66.911Zm-13.409,-145.897l191.602,-271.165l0.021,-0.053l-0.006,0.031l0.02,-0.027l-0.025,0.057l-65.019,350.121l-48.677,-65.606l113.522,-284.111l-121.103,280.252l-70.335,-9.499Z" style="fill:#666667;stroke:#000;stroke-width:3px;stroke-linecap:butt;stroke-miterlimit:2;"/>
    </g>
    <g id="NNW-Assegai" serif:id="NNW Assegai">
        <path d="M1808.47,1184.94l-0.005,-0.032l0.021,0.054l194.976,273.747l-73.481,7.32l-121.331,-280.656l113.362,284.248l-51.888,63.431l-61.649,-348.083l-0.024,-0.057l0.019,0.028Zm194.992,273.769l-16.374,143.832l4.382,-34.988l711.746,1736.03c-6.869,14.252 -20.291,20.405 -38.792,20.316l-707.696,-1738.68l30.204,17.344l-116.818,-69.49l56.65,-52.568l60.297,122.132l0.014,0.008l-50.579,-124.47l66.966,-19.466Z" style="fill:#666667;stroke:#000;stroke-width:3px;stroke-linecap:butt;stroke-miterlimit:2;"/>
    </g>
    <g id="NWSE-Bow" serif:id="NWSE Bow">
        <path id="shaft" d="M1209.35,1318.42c143.493,49.2 268.232,308.057 239.392,491.776c17.631,148.295 31.913,261.122 67.977,346.437c83.717,198.022 208.028,293.233 314.262,305.659l280.473,243.958c120.279,220.602 218.323,316.294 308.266,355.871c98.121,43.179 244.949,23.742 422.543,-22.596c130.943,-26.05 239.052,64.457 324.686,269.663c-21.056,-107.153 -41.751,-186.005 -61.636,-202.555c-92.827,-105.456 -386.441,-157.815 -405.001,-112.383c-18.715,45.841 -146.55,55.998 -199.002,44.237c-87.119,-19.558 -156.646,-77.09 -182.052,-108.061c-65.107,-79.361 -116.3,-169.416 -164.19,-258.425l-260.18,-249.066c-93.397,-33.2 -189.606,-75.548 -254.044,-146.06c-110.534,-153.256 -150.664,-307.485 -149.077,-462.293c3.775,-43.365 6.365,-89.979 -2.728,-139.945c-20.5,-112.623 -76.706,-208.697 -122.021,-282.505c-71.564,-116.581 -111.086,-107.137 -157.668,-73.712Z" style="fill:#fff;stroke:#000;stroke-width:3px;"/>
        <path id="string" d="M3105.32,3106.63l-1785.16,-1784.29" style="fill:none;stroke:#000;stroke-width:3px;"/>
        <g id="risers">
            <path d="M2132.08,2690.7c49.607,100.116 99.96,193.476 172.339,258.822c135.972,122.768 229.519,136.147 386.669,99.648c68.85,-15.99 140.457,-31.547 197.944,-26.98c119.015,9.457 201.515,99.111 255.338,223.895" style="fill:none;stroke:#000;stroke-width:3px;stroke-linejoin:miter;"/>
            <path d="M1232.93,1317.14c100.739,4.82 221.629,204.848 241.466,344.45c22.509,158.411 1.417,224.822 17.258,339.092c25.366,182.98 194.627,445.86 362.968,447.559" style="fill:none;stroke:#000;stroke-width:3px;stroke-linejoin:miter;"/>
            <path d="M3167.9,3308.61c-71.302,-261.06 -200.557,-308.305 -467.375,-311.384c6.455,-42.919 261.499,-7.022 376.776,83.616c64.777,50.931 57.245,107.505 90.599,227.768Z" style="fill:#666667;"/>
            <path d="M1210.36,1317.13c149.36,62.627 268.461,306.434 237.407,494.89l17.014,115.171c58.074,-312.758 -109.395,-570.54 -254.421,-610.061Z" style="fill:#666667;"/>
        </g>
        <g id="grip">
            <path d="M2154.91,2671.95l-261.895,-249.218c-151.942,-53.432 -203.899,-97.449 -252.346,-144.518c51.513,83.171 123.36,141.405 231.591,159.679l268.194,245.046l14.456,-10.989Z" style="fill:#666667;"/>
            <path d="M1854.62,2448.24l277.457,242.457" style="fill:none;stroke:#000;stroke-width:3px;stroke-linejoin:miter;"/>
        </g>
    </g>
    <g id="SW-Arrow" serif:id="SW Arrow">
        <path d="M2816.62,1720.73l-188.619,185.875l-1101.84,1087.74l24.226,21.499l-286.315,222.753l218.686,-281.873l22.742,16.568l1285.23,-1266.63c143.827,-254.79 246.584,-363.317 308.949,-327.94l124.417,-125.826l25.609,23.322l-122.662,129.978c22.218,58.755 -144.381,186.752 -310.426,314.535Z" style="fill:#fff;stroke:#000;stroke-width:3px;"/>
        <path d="M3117.96,1418.74c-5.81,55.904 -109.424,142.235 -262.837,262.277c123.408,-111.066 253.8,-215.937 262.837,-262.277Z" style="fill:#666667;"/>
        <path d="M3088.57,1393.34l-265.53,277.25c96.697,-147.066 188.273,-304.905 265.53,-277.25Z" style="fill:#666667;"/>
        <path d="M1544.1,3016.8l-30.033,-28.682l-239.445,240.49l269.478,-211.808Z" style="fill:#666667;"/>
    </g>
    <g id="WSW-Katana" serif:id="WSW Katana">
        <g id="hilt">
            <path d="M2670.03,2024.12l420.504,-242.957l11.012,1.432c18.44,9.08 29.282,22.304 29.248,41.419l-2.219,11.746l-418.224,255.819" style="fill:#fff;stroke:#000;stroke-width:3px;"/>
            <path d="M2670.03,2024.12l27.866,12.264l-0.943,-28.098l24.345,14.066l0.996,-28.538l24.665,13.229l3.292,-29.358l19.965,14.844l1.425,-27.161l21.653,13.473l3.24,-28.261l22.873,12.881l0.033,-25.638l21.166,13.125l1.883,-25.859l25.964,9.245l1.649,-25.7l24.067,10.21l1.626,-25.556l23.161,11.2l2.909,-25.378l22.068,10.337l2.302,-25.047l22.393,9.993l3.687,-24.489l20.597,10.033l3.135,-24.339l21.035,10.21l4.786,-23.98l21.852,7.675l2.833,-22.41l20.216,8.371l1.977,-21.67l22.153,7.051l-1.031,-19.628" style="fill:#666667;"/>
            <path d="M2711.13,2091.13l-4.045,-39.799l25.124,25.815l-3.008,-39.178l29.231,22.978l-3.714,-37.887l27.747,23.804l-3.337,-39.328l29.55,23.869l-5.643,-38.189l31.185,22.29l-4.755,-38.12l29.042,23.699l-7.555,-37.434l31.019,23.292l-4.915,-38.354l30.662,22.368l-5.359,-38.176l29.104,23.587l-3.916,-38.646l29.353,22.757l-5.103,-37.633l29.514,22.99l-4.329,-38.084l30.488,21.536l-5.175,-36.781l28.069,23.002l-3.958,-37.867l27.943,22.765l-2.975,-37.488l30.444,20.552l-6.033,-35.618l28.181,23.522l-6.13,-36.386l27.031,22.381" style="fill:none;stroke:#000;stroke-width:3px;stroke-linejoin:miter;"/>
            <path d="M3128.69,1834.98c-4.931,-0.798 -35.635,-36.703 -38.82,-53.758" style="fill:none;stroke:#000;stroke-width:3px;"/>
        </g>
        <g id="tsuba">
            <path d="M2637.73,2048.1c0,-0 -5.901,-15.055 -8.462,-21.829c-3.097,-8.176 -5.574,-15.662 -7.362,-22.04c36.296,28.786 62.707,73.468 78.944,137.031c-0.054,-0.045 -0.107,-0.091 -0.161,-0.136c-5.655,-5.56 -11.139,-11.414 -16.438,-17.606c-5.785,-7.453 -11.265,-15.727 -16.855,-24.363c0.549,-16.032 -20.931,-50.019 -29.666,-51.057Z" style="fill:#666667;"/>
            <path d="M2621.79,2004.17c4.751,15.852 10.079,30.444 15.935,43.931" style="fill:none;stroke:#000;stroke-width:3px;"/>
            <path d="M2666.78,2098.98c5.431,8.962 11.272,17.092 17.475,24.542" style="fill:none;stroke:#000;stroke-width:3px;"/>
            <path d="M2684.25,2123.52c5.299,6.192 10.783,12.046 16.438,17.606" style="fill:none;stroke:#000;stroke-width:3px;"/>
            <path d="M2640.42,1993.8c22.382,8.223 89.758,127.236 75.935,139.497l-15.424,8.059c-24.956,-93.215 -57.492,-116.939 -79.134,-137.192l18.623,-10.364Z" style="fill:#fff;stroke:#000;stroke-width:3px;"/>
        </g>
        <g id="tang">
            <path d="M2666.38,2098.93c-494.164,242.983 -871.37,416.024 -1150.38,512.57l-77.754,16.474c-36.228,-1.04 -70.95,-2.203 -104.513,-3.425c18.402,-6.573 55.158,-19.857 55.158,-19.857c0,0 848.531,-334.758 1249.03,-556.66c16.818,13.637 24.876,30.943 28.466,50.898Z" style="fill:#fff;stroke:#000;stroke-width:3px;"/>
            <path d="M1512.14,2597.49c219.138,-67.456 597.084,-238.335 1068.29,-471.766l-9.524,-16.963c-454.312,221.797 -853.43,406.808 -1065.21,467.214" style="fill:none;stroke:#000;stroke-width:3px;"/>
            <path d="M1512.14,2597.49l3.853,14.003" style="fill:none;stroke:#000;stroke-width:3px;"/>
            <path d="M1392.26,2603.22l119.884,-5.722" style="fill:none;stroke:#000;stroke-width:3px;"/>
            <path d="M1512.14,2597.49l3.853,14.003c471.528,-173.969 764.513,-328.106 1070.86,-473.562l-6.423,-12.207c-473.365,234.664 -839.506,398.519 -1068.29,471.766Z" style="fill:#666667;"/>
            <path d="M1333.73,2624.58l58.527,-21.365l50.721,-2.429c19.935,1.025 17.837,12.515 -5.193,27.221l-104.055,-3.427Z" style="fill:#666667;"/>
            <path d="M2560.48,2089.72l26.625,48.19l29.6,-14.57l-27.289,-48.983l-28.936,15.363Z" style="fill:#666667;"/>
            <path d="M2663.51,2088.11l-52.32,25.492l-8.157,-14.887l52.793,-27.305c2.922,5.387 4.569,11.699 7.684,16.7Z" style="fill:#666667;"/>
            <path d="M2648.97,2061.28l-52.13,26.827l-7.403,-13.433l48.288,-26.578c6.301,4.891 8.823,8.286 11.245,13.184Z" style="fill:#666667;"/>
        </g>
    </g>
    <g id="ESE-Katana" serif:id="ESE Katana">
        <g id="hilt1" serif:id="hilt">
            <path d="M1829.84,2022.32l-421.454,-243.507l-11.037,1.436c-18.482,9.1 -29.348,22.354 -29.315,41.512l2.224,11.773l419.171,256.397" style="fill:#fff;stroke:#000;stroke-width:3px;"/>
            <path d="M1829.84,2022.32l-27.929,12.291l0.946,-28.161l-24.401,14.097l-0.998,-28.602l-24.721,13.259l-3.299,-29.425l-20.011,14.879l-1.428,-27.224l-21.701,13.505l-3.247,-28.326l-22.926,12.91l-0.032,-25.696l-21.214,13.155l-1.888,-25.917l-26.022,9.265l-1.653,-25.757l-24.122,10.233l-1.629,-25.614l-23.213,11.225l-2.916,-25.435l-22.118,10.36l-2.307,-25.103l-22.443,10.015l-3.696,-24.544l-20.644,10.055l-3.142,-24.393l-21.082,10.232l-4.798,-24.033l-21.9,7.691l-2.84,-22.46l-20.262,8.39l-1.981,-21.719l-22.203,7.066l1.033,-19.672" style="fill:#666667;"/>
            <path d="M1788.65,2089.48l4.055,-39.889l-25.181,25.874l3.014,-39.267l-29.296,23.03l3.721,-37.973l-27.809,23.858l3.345,-39.417l-29.617,23.923l5.655,-38.275l-31.255,22.34l4.766,-38.206l-29.108,23.753l7.572,-37.519l-31.089,23.344l4.926,-38.44l-30.731,22.418l5.371,-38.262l-29.17,23.641l3.925,-38.734l-29.42,22.808l5.115,-37.718l-29.58,23.042l4.339,-38.17l-30.558,21.585l5.187,-36.864l-28.133,23.054l3.968,-37.953l-28.007,22.817l2.983,-37.573l-30.513,20.598l6.046,-35.698l-28.245,23.575l6.144,-36.469l-27.092,22.432" style="fill:none;stroke:#000;stroke-width:3px;stroke-linejoin:miter;"/>
            <path d="M1370.15,1832.75c4.942,-0.8 35.715,-36.786 38.907,-53.88" style="fill:none;stroke:#000;stroke-width:3px;"/>
        </g>
        <g id="tsuba1" serif:id="tsuba">
            <path d="M1798.88,2139.83l-15.46,-8.077c-15.748,-15.515 59.11,-138.472 76.108,-139.813l18.664,10.388c4.633,14.683 -64.232,135.639 -79.312,137.502Z" style="fill:#fff;stroke:#000;stroke-width:3px;"/>
            <path d="M1834.08,2097.59c2.863,-20.505 12.078,-37.673 27.72,-51.467l0.044,-0.103c3.904,-7.599 6.288,-14.757 8.854,-21.546c3.105,-8.194 5.587,-15.697 7.379,-22.089c-36.378,28.851 -62.848,73.634 -79.122,137.34c12.671,-10.668 24.496,-25.717 35.125,-42.135Z" style="fill:#666667;"/>
        </g>
        <g id="tang1" serif:id="tang">
            <path d="M1862.86,2046.71c-6.704,-7.791 -34.689,39.788 -29.358,50.588c495.282,243.533 873.341,416.965 1152.98,513.73l77.93,16.511c36.31,-1.043 71.11,-2.209 104.749,-3.434c-18.443,-6.587 -55.283,-19.901 -55.283,-19.901c0,0 -842.228,-335.201 -1251.02,-557.494Z" style="fill:#fff;stroke:#000;stroke-width:3px;"/>
            <path d="M2990.35,2596.99c-219.633,-67.609 -598.434,-238.874 -1070.71,-472.833l9.545,-17.001c455.339,222.298 855.36,407.728 1067.62,468.27" style="fill:none;stroke:#000;stroke-width:3px;"/>
            <path d="M2990.35,2596.99l-3.862,14.035" style="fill:none;stroke:#000;stroke-width:3px;"/>
            <path d="M2990.35,2596.99l-3.862,14.035c-472.593,-174.363 -766.766,-328.869 -1073.81,-474.653l6.962,-12.215c474.435,235.195 841.403,399.42 1070.71,472.833Z" style="fill:#666667;"/>
            <path d="M3110.5,2602.73l-120.155,-5.735" style="fill:none;stroke:#000;stroke-width:3px;"/>
            <path d="M3169.16,2624.14l-58.659,-21.413l-50.835,-2.435c-19.981,1.027 -17.878,12.543 5.204,27.283l104.29,-3.435Z" style="fill:#666667;"/>
            <path d="M1939.64,2088.07l-26.685,48.299l-29.667,-14.603l27.351,-49.094l29.001,15.398Z" style="fill:#666667;"/>
            <path d="M1881.65,2057.05c-6.651,-3.617 -13.192,-7.206 -19.619,-10.767c-5.398,2.199 -9.303,6.251 -11.91,11.955l53.071,28.216l7.57,-13.779l-29.112,-15.625Z" style="fill:#666667;"/>
            <path d="M1843.55,2068.41c-4.304,6.154 -8.348,12.852 -6.82,16.501l52.088,27.095l8.175,-14.921l-53.443,-28.675Z" style="fill:#666667;"/>
        </g>
    </g>
    <g id="East-Halberd" serif:id="East Halberd">
        <g id="blade">
            <path d="M3066.47,2262.88l245.744,2.591c14.469,7.49 24.616,41.43 32.917,87.795c1.561,-36.248 6.622,-67.836 23.001,-84.354l507.342,-14.323l-261.828,-26.035c26.676,-53.576 17.08,-94.038 -19.05,-124.928c14.815,55.064 8.873,97.909 -42.638,113.771l-113.175,-7.389l-31.979,-6.342c36.956,-35.081 25.397,-68.037 -34.601,-98.903c32.941,38.143 38.477,72.015 -0.271,99.084c-13.01,2.272 -19.151,-4.315 -15.75,-23.261c2.519,26.954 -142.792,41.382 -289.745,49.764l0.033,32.53Z" style="fill:#fff;stroke:#000;stroke-width:3px;stroke-linejoin:miter;"/>
            <path d="M3875.47,2255.94l-614.448,-19.811c57.151,9.778 2.655,15.334 -178.843,16.101" style="fill:none;stroke:#000;stroke-width:3px;stroke-linejoin:miter;"/>
            <path d="M3075.46,2259.38c96.768,-2.888 236.104,-4.42 211.671,-17.985l417.394,13.305l-629.065,4.68Z" style="fill:#666667;"/>
            <path d="M3561.78,2219.22l28.212,2.611c34.996,-46.315 20.316,-75.61 10.318,-107.57c10.58,49.819 4.926,89.355 -38.53,104.959" style="fill:#666667;"/>
            <path d="M3379.14,2205.23l14.254,-2.694c31.751,-31.543 18.089,-60.019 -9.318,-88.881c26.206,31.243 30.055,61.91 -4.936,91.575Z" style="fill:#666667;"/>
        </g>
        <g id="guard">
            <path d="M2903.16,2273.5l133.95,-0.136l8.305,14.49l21.092,12.801l-0.109,-107.462l-22.369,11.206l-6.34,17.018l-134.581,0.939c-9.126,19.279 -8.774,36.218 0.052,51.144Z" style="fill:#fff;stroke:#000;stroke-width:3px;stroke-linejoin:miter;"/>
            <path d="M2872.26,2273.54c-15.709,-19.473 -15.205,-36.413 -0.052,-51.145l30.894,-0.031c-7.604,16.728 -10.189,33.779 -1.844,51.146l-28.998,0.03Z" style="fill:#fff;stroke:#000;stroke-width:3px;stroke-linejoin:miter;"/>
            <path d="M3029.94,2246.97l-118.224,0.12" style="fill:none;stroke:#000;stroke-width:3px;stroke-linejoin:miter;"/>
            <path d="M3029.9,2254.68l4.525,14.215l-129.867,-0.228c-4.192,-6.975 -4.645,-11.275 -3.771,-14.596l129.113,0.609Z" style="fill:#666667;"/>
        </g>
        <g id="haft">
            <path d="M633.862,2274.5c-13.403,-19.221 -11.04,-35.324 -0.906,-49.833l2239.26,-2.28c-14.558,14.768 -15.285,31.781 -1.547,51.146l-2236.8,0.967Z" style="fill:#fff;stroke:#000;stroke-width:3px;stroke-linejoin:miter;"/>
            <path d="M2856.34,2252.47c0.22,5.65 2.307,10.948 6.18,15.904l-2225.32,1.816c-4.802,-5.405 -7.36,-11.933 -6.929,-19.953l2226.07,2.233Z" style="fill:#666667;"/>
        </g>
    </g>
    <g id="North-Label" serif:id="North Label">
        <path d="M2089.13,668.582l0.08,0.241l-0.85,15.721l-5,-16.438l0.13,-0.215c-20.06,-10.382 -69.49,31.403 -78.47,68.668l-10.47,4.213c13.08,-60.894 49.53,-109.055 123.63,-114.923c57.27,-1.692 114.29,78.3 173.31,201.041c75.93,38.884 136.38,28.621 171.14,-7.007l2.18,-107.739l-4.03,-3.586l-42.01,-0.24l-0.37,13.594c-1.08,-0.564 -5.37,-14.716 -6.44,-15.229c-22.02,-10.555 -42.58,-10.231 -65.33,-0.427c0.01,0.259 -5.8,-5.607 -2.14,-8.728c23.48,-20.044 49.28,-43.91 66.93,-64.992c2.72,-3.251 7.93,-2.957 12.16,-3.698c3.74,22.159 12.53,33.603 25.14,36.433c10.45,2.347 28.71,3.745 43.32,-0.715c29.8,-9.091 43.95,-29.031 56.09,-41.964l6.86,0.216c-4.81,21.335 -10.93,42.256 -70.57,77.175c-0.19,4.031 -0.33,8.251 -3.11,7.787l1.48,536.047l-8.27,4.21c-26.98,-13.06 -68.14,-67.16 -117.13,-142.5l-12.79,0.25l-148.21,118.64l-25.58,28.89l-9.19,1.3l-6.06,-22.04c-15.83,-24.92 -80.72,-62.49 -154.89,-36.69c-15.68,5.46 -32.96,24.06 -36.24,34.16c-17.3,53.29 29.05,82.24 81.44,87.93l-0.49,6.71c-60.17,-2.35 -103.9,-44.1 -102.33,-88.43c8.49,-55.68 73.28,-97.81 147.48,-95.55l5.09,-4.81l0.42,-164.15c-8.66,-25.224 -28.32,-43.239 -51.65,-41.722c-20.7,1.346 -46.14,7.237 -56.51,43.283l-4.61,-0.542c-1.34,-57.422 71.16,-114.346 106.95,-93.716l8.4,-5.494l-0.21,-196.646l-9.28,-8.318Zm27.22,298.389c0,0 -2.05,30.908 -3.16,33.095l1.54,136.971l6.12,6.41c34.35,2.56 62.05,18.12 88.03,38.75l11.02,-0.11l122.77,-94.52l2.8,-10.16l-43.33,-83.505c-0.02,-0.015 -0.02,-0.014 0,0.001l-18.82,-35.329c-45.46,-106.953 -95.08,-204.083 -156.24,-273.972l-13.89,-0.304l3.16,282.673Zm337.88,-123.566c-61.19,29.069 -76.03,28.343 -139.9,8.579l-6.33,10.103l110.88,209.819c11.59,15.811 23.7,31.001 38,43.651l6.51,-2.66l-0.46,-265.319l-8.7,-4.173Z" style="fill:#666667;stroke:#000;stroke-width:3px;stroke-linecap:butt;stroke-miterlimit:2;"/>
    </g>
    <g id="North-Pole" serif:id="North Pole">
        <g id="guard1" serif:id="guard">
            <path d="M2233.12,1696.86c-57.994,-92.968 -138.682,-79.583 -236.527,14.033c54.751,-86.981 116.679,-155.506 240.315,-65.627l0,-34.968l-35.044,-26.159l48.632,9.076l50.125,-9.076l-37.667,26.121l-0.947,35.578c112.417,-82.519 186.766,-51.784 241.408,67.8c-87.755,-95.217 -164.727,-117.754 -235.543,-16.778" style="fill:#fff;stroke:#000;stroke-width:3px;stroke-linejoin:miter;"/>
            <path d="M2232.41,1681.92c-47.39,-72.679 -129.74,-73.338 -212.45,3.099" style="fill:none;stroke:#000;stroke-width:3px;stroke-linejoin:miter;"/>
            <path d="M2268.97,1681.92c48.88,-76.678 131.45,-77.944 212.45,3.099" style="fill:none;stroke:#000;stroke-width:3px;stroke-linejoin:miter;"/>
            <path d="M2232.64,1803.17l0,-106.886l34.753,0l-0,106.314l-34.753,0.572l0,-106.886" style="fill:#666667;"/>
            <path d="M2232.64,1803.17l0,-106.886l34.753,0l-0,106.314l-34.753,0.572l0,-106.886" style="fill:#666667;"/>
        </g>
        <g id="blade1" serif:id="blade">
            <path d="M2218.22,1587l14.899,-906.911l16.884,-50.424l17.868,48.212l17.23,908.971l-34.606,7.626l-32.275,-7.474Z" style="fill:#fff;stroke:#000;stroke-width:3px;stroke-linejoin:miter;"/>
            <path d="M2251.66,1594.47l0,-674.723" style="fill:none;stroke:#000;stroke-width:3px;stroke-linejoin:miter;"/>
            <path d="M2233.12,680.085c13.988,338.466 25.645,300.028 35.116,-0" style="fill:none;stroke:#000;stroke-width:3px;stroke-linejoin:miter;"/>
            <path d="M2267.26,901.11c-1.298,11.407 -2.95,15.04 -6.272,19.12l9.69,658.361c-0.287,0.147 8.763,-3.245 8.716,-3.465l-12.134,-674.016Z" style="fill:#666667;"/>
            <path d="M2250.01,637.132l7.37,18.848c-15.83,19.825 -6.64,154.932 -5.73,251.847c-5.56,-46.598 -10.91,-118.257 -15.93,-227.738l14.29,-42.957" style="fill:#666667;"/>
        </g>
        <g id="haft1" serif:id="haft">
            <path d="M2233.12,1803.74l0.109,2059.97c14.134,17.198 22.95,18.914 34.752,0.495l-1.348,-2061.04l-33.513,0.572Z" style="fill:#fff;stroke:#000;stroke-width:3px;stroke-linejoin:miter;"/>
            <rect x="2250.98" y="1809.03" width="7.065" height="2062.38" style="fill:#666667;"/>
        </g>
    </g>
    <g id="North-Cross" serif:id="North Cross">
        <path d="M2110.41,1010.17l3.253,-53.279l4.334,7.984c46.198,-37.528 100.528,-39.052 161.415,-11.38l6.125,-10.122l19.373,56.873c-51.417,-60.373 -172.399,-59.169 -194.5,9.924Z" style="fill:#666667;"/>
        <path d="M2304.91,999.288c-51.152,-58.172 -168.956,-57.68 -191.762,5.57m2.577,-44.661l2.367,4.619c45.568,-45.663 135.443,-27.675 160.629,-11.771l2.222,-2.84" style="fill:none;stroke:#000;stroke-width:3px;stroke-linecap:butt;stroke-miterlimit:2;"/>
    </g>
    <g id="Shield">
        <g id="frame">
            <path d="M2256.6,2851.6c-6.328,3.731 -12.525,3.614 -18.566,-0.548c-199.439,-194.286 -312.376,-431.889 -315.703,-724.407c3.157,-7.92 8.416,-12.904 16.87,-13.412c114.515,-24.738 216.166,-67.52 301.547,-133.121c4.436,-3.197 9.25,-3.575 14.535,-0.418c77.696,61.283 181.617,108.123 314.581,138.966c4.892,1.892 7.828,6.589 7.815,15.526c-7.933,285.134 -117.203,523.219 -321.079,717.414Z" style="fill:#fff;stroke:#000;stroke-width:3px;"/>
            <g id="rivets">
                <circle cx="2247.9" cy="2004.54" r="9.12" style="fill:#fff;stroke:#000;stroke-width:3px;"/>
                <circle cx="2327.24" cy="2053.64" r="9.12" style="fill:#fff;stroke:#000;stroke-width:3px;"/>
                <circle cx="2400.07" cy="2086.78" r="9.12" style="fill:#fff;stroke:#000;stroke-width:3px;"/>
                <circle cx="2481.41" cy="2112.14" r="9.12" style="fill:#fff;stroke:#000;stroke-width:3px;"/>
                <circle cx="2553.22" cy="2138.44" r="9.12" style="fill:#fff;stroke:#000;stroke-width:3px;"/>
                <circle cx="2549.99" cy="2220.99" r="9.12" style="fill:#fff;stroke:#000;stroke-width:3px;"/>
                <circle cx="2538.87" cy="2299.02" r="9.12" style="fill:#fff;stroke:#000;stroke-width:3px;"/>
                <circle cx="2523.52" cy="2373.05" r="9.12" style="fill:#fff;stroke:#000;stroke-width:3px;"/>
                <circle cx="2500.1" cy="2447.37" r="9.12" style="fill:#fff;stroke:#000;stroke-width:3px;"/>
                <circle cx="2472.01" cy="2519.87" r="9.12" style="fill:#fff;stroke:#000;stroke-width:3px;"/>
                <circle cx="2439.09" cy="2587.52" r="9.12" style="fill:#fff;stroke:#000;stroke-width:3px;"/>
                <circle cx="2400.32" cy="2651.6" r="9.12" style="fill:#fff;stroke:#000;stroke-width:3px;"/>
                <circle cx="2358.24" cy="2713.6" r="9.12" style="fill:#fff;stroke:#000;stroke-width:3px;"/>
                <circle cx="2306.68" cy="2775.01" r="9.12" style="fill:#fff;stroke:#000;stroke-width:3px;"/>
                <circle cx="2248" cy="2826.66" r="9.12" style="fill:#fff;stroke:#000;stroke-width:3px;"/>
                <circle cx="2191.3" cy="2776.17" r="9.12" style="fill:#fff;stroke:#000;stroke-width:3px;"/>
                <circle cx="2140.21" cy="2713.48" r="9.12" style="fill:#fff;stroke:#000;stroke-width:3px;"/>
                <circle cx="2096.28" cy="2652.24" r="9.12" style="fill:#fff;stroke:#000;stroke-width:3px;"/>
                <circle cx="2058.81" cy="2585.87" r="9.12" style="fill:#fff;stroke:#000;stroke-width:3px;"/>
                <circle cx="2025.58" cy="2518.74" r="9.12" style="fill:#fff;stroke:#000;stroke-width:3px;"/>
                <circle cx="1997.45" cy="2445.32" r="9.12" style="fill:#fff;stroke:#000;stroke-width:3px;"/>
                <circle cx="1975.17" cy="2372.78" r="9.12" style="fill:#fff;stroke:#000;stroke-width:3px;"/>
                <circle cx="1958.74" cy="2299" r="9.12" style="fill:#fff;stroke:#000;stroke-width:3px;"/>
                <circle cx="1949.62" cy="2220.19" r="9.12" style="fill:#fff;stroke:#000;stroke-width:3px;"/>
                <circle cx="1947.08" cy="2138.89" r="9.12" style="fill:#fff;stroke:#000;stroke-width:3px;"/>
                <circle cx="2017.97" cy="2111.84" r="9.12" style="fill:#fff;stroke:#000;stroke-width:3px;"/>
                <circle cx="2097.93" cy="2086.67" r="9.12" style="fill:#fff;stroke:#000;stroke-width:3px;"/>
                <circle cx="2171.4" cy="2052.44" r="9.12" style="fill:#fff;stroke:#000;stroke-width:3px;"/>
            </g>
        </g>
        <g id="face">
            <path d="M2255.67,2802.37c-5.443,3.304 -10.773,3.2 -15.969,-0.485c-179.078,-188.873 -271.58,-408.636 -266.373,-649.608c2.716,-7.012 7.25,-11.413 14.51,-11.875c96.127,-17.651 178.383,-47.27 254.197,-109.639c3.816,-2.83 7.957,-3.165 12.502,-0.369c60.631,55.067 145.592,88.071 265.688,114.629c4.197,1.675 6.722,5.834 6.711,13.747c-2.626,240.544 -91.84,460.076 -271.266,643.6Z" style="fill:none;stroke:#000;stroke-width:3px;"/>
            <path d="M2250.02,2041.83c-78.8,60.12 -167.04,95.68 -263.97,108.62c104.69,20.54 200.3,7.27 263.97,-108.62" style="fill:#666667;"/>
            <path d="M2513.29,2158.45c-74.86,258.34 -165.03,458.54 -263.27,628.1c163.72,-202.1 253.91,-387.19 263.27,-628.1Z" style="fill:#666667;"/>
            <path d="M2255.76,2045.77c9.37,193.87 114.33,189.46 256.56,107.74c-74.74,48.66 -158.02,81.89 -255.7,89.1l-0.86,-196.84Z" style="fill:#666667;"/>
            <path d="M1986.15,2161.73c51.71,47.77 149.04,91.12 251.51,96.56l5.95,532.65c-2.97,-234.84 -89.69,-441.03 -257.46,-629.21Z" style="fill:#666667;"/>
        </g>
    </g>
    <g id="Cross-Dagger" serif:id="Cross Dagger">
        <g id="hilt2" serif:id="hilt">
            <path d="M1925.58,2065.68c-11.45,0.817 -19.436,-4.294 -23.048,-10.498c-5.037,-8.676 -5.413,-22.548 2.784,-29.83c5.744,-5.099 11.924,-7.93 19.603,-6.882c3.311,0.453 6.895,1.627 10.841,3.655c5.496,2.817 12.958,14.01 10.26,23.451" style="fill:#fff;stroke:#000;stroke-width:3px;stroke-linejoin:miter;"/>
            <path d="M2044.95,2198.36c-6.186,1.818 -10.46,-14.654 -16.814,-21.295c-9.704,-10.147 -30.568,-23.368 -43.95,-37.096c-13.464,-13.81 -27.103,-33.285 -36.824,-45.759c-7.413,-9.513 -21.529,-29.088 -21.529,-29.088c4.882,-8.04 11.38,-14.973 19.845,-20.569c0,0 17.44,14.787 26.427,21.838c10.802,8.465 26.734,17.927 38.354,28.95c12.939,12.277 31.703,31.072 39.292,44.711c8.711,15.643 27.694,16.643 28.926,21.248l-33.727,37.06Z" style="fill:#fff;stroke:#000;stroke-width:3px;stroke-linejoin:miter;"/>
            <path d="M1907.66,2023.73c6.506,-2.677 13.538,-1.195 17.113,0.758c2.449,1.338 4.882,6.318 4.18,9.772c-0.546,2.678 -6.497,4.497 -8.746,7.644c-2.639,3.682 -3.116,12.227 0.633,14.112c4.094,2.064 11.896,-2.203 15.482,-5.131c2.851,-2.323 8.993,-6.982 8.993,-6.982c2.79,-8.128 -4.177,-18.023 -11.21,-22.145c-6.221,-3.648 -17.005,-4.756 -26.445,1.972Z" style="fill:#666667;"/>
            <path d="M2076.74,2162.02c-1.86,1.512 -5.579,4.534 -5.579,4.534c-5.93,-3.915 -13.918,-9.957 -20.772,-17.536c-9.566,-10.576 -18.106,-22.473 -20.598,-25.802c-11.555,-15.454 -20.557,-22.645 -30.39,-29.467c-14.108,-9.788 -31.734,-23.379 -40.747,-29.46c-6.102,-4.112 -13.728,-17.856 -12.78,-18.425c12.464,10.378 39.441,24.816 63.315,49.451c11.728,12.097 32.278,29.365 37.487,41.108c5.218,11.773 18.825,19.087 25.137,21.29c4.25,1.487 3.242,4.194 4.927,4.307" style="fill:#666667;"/>
            <g>
                <g>
                    <path d="M2053.46,2142.47c-10.051,8.074 -20.113,18.586 -30.191,32.09" style="fill:none;stroke:#000;stroke-width:3px;stroke-linejoin:miter;"/>
                </g>
                <g>
                    <path d="M2057.6,2147.06c-10.051,8.074 -20.113,18.586 -30.191,32.09" style="fill:none;stroke:#000;stroke-width:3px;stroke-linejoin:miter;"/>
                </g>
                <g>
                    <path d="M2061.92,2150.33c-10.355,8.318 -20.722,19.148 -31.105,33.06" style="fill:none;stroke:#000;stroke-width:3px;stroke-linejoin:miter;"/>
                </g>
                <g>
                    <path d="M2074.49,2156.66c-11.837,9.509 -23.687,21.889 -35.556,37.791" style="fill:none;stroke:#000;stroke-width:3px;stroke-linejoin:miter;"/>
                </g>
                <g>
                    <path d="M2049.93,2136.7c-10.642,8.549 -21.295,19.679 -31.966,33.976" style="fill:none;stroke:#000;stroke-width:3px;stroke-linejoin:miter;"/>
                </g>
                <g>
                    <path d="M2045.91,2131.94c-10.911,8.765 -21.834,20.176 -32.775,34.835" style="fill:none;stroke:#000;stroke-width:3px;stroke-linejoin:miter;"/>
                </g>
                <g>
                    <path d="M2042.22,2126.15c-11.407,9.165 -22.828,21.095 -34.267,36.422" style="fill:none;stroke:#000;stroke-width:3px;stroke-linejoin:miter;"/>
                </g>
                <g>
                    <path d="M2038.3,2121.93c-11.513,9.248 -23.038,21.288 -34.581,36.755" style="fill:none;stroke:#000;stroke-width:3px;stroke-linejoin:miter;"/>
                </g>
                <g>
                    <path d="M2033.39,2117.39c-11.648,9.357 -23.308,21.538 -34.987,37.186" style="fill:none;stroke:#000;stroke-width:3px;stroke-linejoin:miter;"/>
                </g>
                <g>
                    <path d="M2029.61,2112.42c-11.91,9.568 -23.832,22.023 -35.774,38.023" style="fill:none;stroke:#000;stroke-width:3px;stroke-linejoin:miter;"/>
                </g>
                <g>
                    <path d="M2025.02,2107.36c-12.011,9.649 -24.035,22.21 -36.078,38.346" style="fill:none;stroke:#000;stroke-width:3px;stroke-linejoin:miter;"/>
                </g>
                <g>
                    <path d="M2020.62,2102.97c-12.022,9.658 -24.057,22.231 -36.111,38.381" style="fill:none;stroke:#000;stroke-width:3px;stroke-linejoin:miter;"/>
                </g>
                <g>
                    <path d="M2016.12,2098.45c-12.04,9.672 -24.093,22.264 -36.166,38.44" style="fill:none;stroke:#000;stroke-width:3px;stroke-linejoin:miter;"/>
                </g>
                <g>
                    <path d="M2012.43,2094.05c-12.075,9.7 -24.162,22.328 -36.27,38.55" style="fill:none;stroke:#000;stroke-width:3px;stroke-linejoin:miter;"/>
                </g>
                <g>
                    <path d="M2006.98,2090.06c-11.628,9.34 -23.268,21.501 -34.927,37.122" style="fill:none;stroke:#000;stroke-width:3px;stroke-linejoin:miter;"/>
                </g>
                <g>
                    <path d="M2002.38,2085.42c-11.458,9.205 -22.928,21.188 -34.417,36.581" style="fill:none;stroke:#000;stroke-width:3px;stroke-linejoin:miter;"/>
                </g>
                <g>
                    <path d="M1997.6,2081.23c-11.29,9.07 -22.593,20.878 -33.914,36.046" style="fill:none;stroke:#000;stroke-width:3px;stroke-linejoin:miter;"/>
                </g>
                <g>
                    <path d="M1992.35,2077.3c-10.817,8.689 -21.646,20.002 -32.492,34.534" style="fill:none;stroke:#000;stroke-width:3px;stroke-linejoin:miter;"/>
                </g>
                <g>
                    <path d="M1987.5,2073.26c-10.547,8.472 -21.105,19.502 -31.68,33.671" style="fill:none;stroke:#000;stroke-width:3px;stroke-linejoin:miter;"/>
                </g>
                <g>
                    <path d="M1981.1,2069.62c-10.079,8.096 -20.169,18.637 -30.275,32.178" style="fill:none;stroke:#000;stroke-width:3px;stroke-linejoin:miter;"/>
                </g>
                <g>
                    <path d="M1976.33,2065.85c-9.608,7.719 -19.228,17.768 -28.862,30.677" style="fill:none;stroke:#000;stroke-width:3px;stroke-linejoin:miter;"/>
                </g>
                <g>
                    <path d="M1970.25,2061.64c-9.189,7.382 -18.388,16.992 -27.602,29.337" style="fill:none;stroke:#000;stroke-width:3px;stroke-linejoin:miter;"/>
                </g>
                <g>
                    <path d="M1965.26,2058.07c-8.749,7.029 -17.508,16.179 -26.281,27.934" style="fill:none;stroke:#000;stroke-width:3px;stroke-linejoin:miter;"/>
                </g>
                <g>
                    <path d="M1960.77,2054.34c-8.474,6.807 -16.957,15.67 -25.454,27.054" style="fill:none;stroke:#000;stroke-width:3px;stroke-linejoin:miter;"/>
                </g>
                <g>
                    <path d="M1955.91,2050.5c-8.091,6.499 -16.19,14.961 -24.303,25.83" style="fill:none;stroke:#000;stroke-width:3px;stroke-linejoin:miter;"/>
                </g>
                <g>
                    <path d="M1951.48,2046.93c-7.712,6.196 -15.433,14.262 -23.166,24.623" style="fill:none;stroke:#000;stroke-width:3px;stroke-linejoin:miter;"/>
                </g>
                <g>
                    <path d="M2068.05,2154.14c-11.076,8.898 -22.163,20.481 -33.269,35.361" style="fill:none;stroke:#000;stroke-width:3px;stroke-linejoin:miter;"/>
                </g>
            </g>
        </g>
        <g id="blade2" serif:id="blade">
            <path d="M2564.66,2684.42l-472.792,-443.116c4.213,-6.143 8.72,-11.949 13.772,-17.098c5.413,-5.514 11.463,-10.276 18.474,-13.892l440.546,474.106" style="fill:#fff;stroke:#000;stroke-width:3px;stroke-linejoin:miter;"/>
            <path d="M2123.29,2240.5l-10.406,9.882l341.389,324.569l-330.983,-334.451Z" style="fill:#666667;"/>
            <path d="M2426.04,2544.24l-302.749,-303.742" style="fill:none;stroke:#000;stroke-width:3px;stroke-linejoin:miter;"/>
        </g>
        <g id="guard2" serif:id="guard">
            <path d="M2101.63,2185.35c36.336,-29.945 54.461,-57.858 44.976,-85.365c-11.376,-25.552 -26.169,-31.125 -35.798,-18.291c-2.85,3.797 -2.168,18.489 7.473,21.321c3.852,0.655 7.226,-0.321 9.702,-4.398c5.16,-2.735 8.699,-0.916 9.819,3.802c6.614,16.312 -15.235,39.591 -51.829,66.022l15.657,16.909Z" style="fill:#fff;stroke:#000;stroke-width:3px;stroke-linejoin:miter;"/>
            <path d="M2084,2237.91l-39.02,-40.159c19.399,-24.178 28.92,-31.027 34.64,-35.379l38.774,40.597c-12.676,9.048 -24.2,20.585 -34.394,34.941Z" style="fill:#fff;stroke:#000;stroke-width:3px;stroke-linejoin:miter;"/>
            <path d="M2098.78,2175.75l2.851,9.599c37.251,-29.186 51.544,-57.698 46.384,-80.857c-12.077,-28.313 -19.764,-28.64 -27.303,-28.051c-5.501,2.711 -7.178,6.42 -1.024,11.668c7.21,2.655 11.362,1.534 12.9,-0.397c-13.177,-1.844 -6.942,-7.111 -4.131,-5.724c7.325,3.61 12.24,10.804 14.486,22.967c4.244,21.732 -16.968,45.803 -44.163,70.795Z" style="fill:#666667;"/>
            <path d="M2067.35,2220.78c-60.797,41.782 -60.737,58.888 -51.131,70.629c4.689,1.701 4.118,-3.523 9.693,-4c12.827,-1.101 18.936,5.959 10.766,24.025c-12.355,10.367 -32.033,-8.354 -37.478,-27.136c-2.705,-19.932 13.347,-53.421 49.113,-82.001l19.037,18.483Z" style="fill:#fff;stroke:#000;stroke-width:3px;stroke-linejoin:miter;"/>
            <path d="M2052.14,2206.01c-15.944,13.35 -30.75,27.71 -40.691,46.323" style="fill:none;stroke:#000;stroke-width:3px;stroke-linejoin:miter;"/>
            <path d="M2124.85,2208.28l-5.074,-5.24c-13.891,11.595 -25.66,23.114 -34.867,34.54l4.999,4.573c10.804,-13.68 22.341,-25.268 34.942,-33.873Z" style="fill:#fff;stroke:#000;stroke-width:3px;stroke-linejoin:miter;"/>
            <path d="M2016.67,2293.03c-20.386,-19.314 10.353,-45.254 49.177,-72.241l-11.659,-5.339c-31.841,22.834 -46.641,43.492 -48.163,60.349c-0.546,13.273 3.154,19.942 9.318,22.773c5.526,2.539 9.642,-6.699 13.404,-6.387c7.723,6.873 -3.351,2.033 -3.049,7.073c-0.633,4.023 6.37,0.13 9.061,9.517c3.752,-2.599 5.062,-14.632 1.703,-17.071c-10.99,-6.359 -12.7,-0.64 -19.792,1.326" style="fill:#666667;"/>
            <path d="M2089.58,2172.2c24.353,-16.886 30.559,-23.439 42.027,-39.092" style="fill:none;stroke:#000;stroke-width:3px;stroke-linejoin:miter;"/>
            <path d="M2107.59,2208.73l-34.974,-35.104l3.472,-3.441l35.449,35.467l-3.947,3.078Z" style="fill:#666667;"/>
            <path d="M2071.46,2176.49l33.785,34.28" style="fill:none;stroke:#000;stroke-width:3px;stroke-linejoin:miter;"/>
            <path d="M2084.21,2232.75l-34.975,-35.104l3.472,-3.441l34.885,34.518l-3.382,4.027Z" style="fill:#fff;stroke:#000;stroke-width:3px;stroke-linejoin:miter;"/>
        </g>
    </g>
    <g id="Cross-Stiletto" serif:id="Cross Stiletto">
        <g id="hilt3" serif:id="hilt">
            <path d="M2387.38,2193.87c39.529,-51.207 82.023,-92.944 126.528,-126.388l19.735,19.757c-37.78,50.903 -80.965,91.013 -126.529,126.388l-19.734,-19.757" style="fill:#fff;stroke:#000;stroke-width:3px;stroke-linejoin:miter;"/>
            <path d="M2565.04,2018.1l8.804,-8.901l5.001,4.558c6.643,-1.983 13.044,1.099 9.963,9.638l4.511,4.703l-9.076,8.928c-1.958,-9.922 -7.724,-17.151 -19.203,-18.926Z" style="fill:#fff;stroke:#000;stroke-width:3px;stroke-linejoin:miter;"/>
            <path d="M2513.91,2067.48l-2.317,-2.096l16.609,-15.813l23.283,23.459l-16.104,16.505l-1.582,-2.144l-19.889,-19.911Z" style="fill:#fff;stroke:#000;stroke-width:3px;stroke-linejoin:miter;"/>
            <path d="M2565,2018.03c10.544,2.033 17.067,8.108 18.864,18.93c1.249,3.939 1.134,7.926 -0.19,11.979c-1.555,4.778 -4.774,9.622 -9.38,14.536c-11.318,9.589 -17.797,11.17 -22.697,9.865l-23.058,-23.403c-0.31,-8.378 3.284,-15.763 9.883,-22.374c8.433,-7.007 17.158,-11.398 26.578,-9.533Z" style="fill:#fff;stroke:#000;stroke-width:3px;stroke-linejoin:miter;"/>
            <path d="M2409.84,2203.87c44.738,-34.407 82.545,-72.913 114.367,-115.018c-3.51,-0.711 -9.277,1.14 -13.019,1.318c-4.615,0.238 -7.25,-0.979 -12.244,0.748c10.177,1.817 12.158,6.416 7.194,13.369c-15.391,-0.159 -24.903,0.783 -27.065,3.102c9.314,-0.542 16.076,0.847 16.647,6.949c-14.172,-0.098 -23.83,1.072 -27.819,3.806c12.134,0.524 17.219,3.521 13.771,9.525c-18.202,0.801 -26.177,2.385 -28.45,4.408c13.396,-0.828 19.212,1.48 17.751,6.82c-18.238,1.886 -27.882,4.677 -32.75,7.988c14.314,-1.442 20.321,0.798 17.304,7.045c-18.055,2.631 -27.197,4.99 -30.245,7.171c10.2,-0.553 15.689,1.317 16,5.852c-12.787,0.728 -21.101,3.019 -27.524,5.969c9.162,0.39 15.289,2.039 15.052,6.323c-9.577,0.69 -16.972,2.706 -22.716,5.776c8.245,-0.716 12.861,0.578 13.485,4.082c-9.406,0.412 -15.539,1.635 -20.367,3.155l10.628,11.612Z" style="fill:#666667;"/>
            <path d="M2574.47,2027.75c6.248,8.398 6.353,18.426 0.173,30.122c-10.717,9.697 -20.707,9.436 -29.994,-0.334l29.821,-29.788Z" style="fill:#666667;"/>
            <path d="M2537.84,2064.34l-10.427,10.415c6.385,5.084 11.784,7.126 15.534,4.303c1.951,-3.878 -0.12,-8.866 -5.107,-14.718Z" style="fill:#666667;"/>
        </g>
        <g id="guard3" serif:id="guard">
            <path d="M2334.04,2239.25c-1.823,-12.327 -7.73,-23.66 -21.463,-27.803l11.232,-21.271c41.18,6.693 71.59,30.709 88.116,86.308l-21.469,13.228c-5.209,-14.26 -14.616,-22.108 -28.747,-22.763" style="fill:#fff;stroke:#000;stroke-width:3px;stroke-linejoin:miter;"/>
            <path d="M2367.77,2205.56l15.659,-15.643l27.631,27.737l-15.622,15.605c-8.867,-12.166 -18.006,-22.063 -27.668,-27.699Z" style="fill:#fff;stroke:#000;stroke-width:3px;stroke-linejoin:miter;"/>
            <path d="M2403.19,2217.55l-10.059,-10.07l-6.918,6.91l10.059,10.07l6.918,-6.91Z" style="fill:#666667;"/>
            <path d="M2348.93,2251.12c4.971,5.126 12.531,7.051 21.943,6.682c10.998,4.582 20.008,12.256 27.964,21.566c4.814,-8.784 -1.058,-25.538 -22.805,-54.187l-21.341,21.317c-2.832,-10.16 -7.546,-18.842 -13.434,-24.549c1.195,5.681 3.633,8.271 5.074,13.638c1.143,4.32 1.259,11.463 2.599,15.533Z" style="fill:#666667;"/>
        </g>
        <g id="blade3" serif:id="blade">
            <path d="M1917.84,2683.52c27.084,-37.617 109.811,-131.09 416.055,-444.124c3.03,14.097 10.908,24.375 27.818,27.55c-181.856,178.823 -341.491,333.136 -443.873,416.574Z" style="fill:#fff;stroke:#000;stroke-width:3px;stroke-linejoin:miter;"/>
            <path d="M2346.77,2261.67l-317.007,313.546l309.457,-320.357l7.55,6.811Z" style="fill:none;stroke:#000;stroke-width:3px;stroke-linejoin:miter;"/>
            <path d="M2029.77,2575.22l309.457,-320.357l3.441,3.445l-312.898,316.912Z" style="fill:#666667;"/>
            <path d="M2354.79,2263.68l-309.096,306.629c22.128,-17.091 128.967,-119.724 316.021,-303.359" style="fill:#666667;"/>
        </g>
    </g>
</svg>
