<?xml version="1.0" encoding="UTF-8" standalone="no"?>
<!DOCTYPE svg PUBLIC "-//W3C//DTD SVG 1.1//EN" "http://www.w3.org/Graphics/SVG/1.1/DTD/svg11.dtd">
<svg width="100%" height="100%" viewBox="0 0 4500 4500" version="1.1" xmlns="http://www.w3.org/2000/svg" xmlns:xlink="http://www.w3.org/1999/xlink" xml:space="preserve" xmlns:serif="http://www.serif.com/" style="fill-rule:evenodd;clip-rule:evenodd;stroke-linejoin:round;stroke-miterlimit:2;">
    <g transform="matrix(1.25,0,0,1.25,-3,0)">
        <rect x="0" y="0" width="3600" height="3600" style="fill:white;stroke:rgb(112,0,255);stroke-width:2.4px;"/>
    </g>
    <g transform="matrix(1.36586,0,0,0.100003,8.60131,298.561)">
        <g id="Extended-North" serif:id="Extended North">
            <path d="M1638.82,657.592L1638.82,3240.22" style="fill:none;stroke:rgb(112,0,255);stroke-width:3.1px;stroke-linecap:round;stroke-miterlimit:1.5;stroke-dasharray:30.95,21.67,61.89,30.95;"/>
        </g>
    </g>
    <g transform="matrix(0.792957,0,0,0.792957,819.654,550.123)">
        <g id="Horizon">
            <path d="M1800.03,1333.93C2248.4,1333.93 2612.41,1697.94 2612.41,2146.31C2612.41,2594.67 2248.4,2958.69 1800.03,2958.69C1351.67,2958.69 987.651,2594.67 987.651,2146.31C987.651,1697.94 1351.67,1333.93 1800.03,1333.93ZM1800.03,1386.66C1380.77,1386.66 1040.38,1727.05 1040.38,2146.31C1040.38,2565.57 1380.77,2905.96 1800.03,2905.96C2219.29,2905.96 2559.68,2565.57 2559.68,2146.31C2559.68,1727.05 2219.29,1386.66 1800.03,1386.66Z" style="fill:rgb(0,187,51);"/>
        </g>
    </g>
    <g id="Cardinal-Visible" serif:id="Cardinal Visible" transform="matrix(1,0,0,1,449,450)">
        <g transform="matrix(0.122047,0.0504362,-0.321349,0.777609,1492.02,-98.6812)">
            <path d="M170.155,1948.9L3147.25,1948.9" style="fill:none;stroke:rgb(112,0,255);stroke-width:4.98px;stroke-linecap:round;stroke-miterlimit:1.5;"/>
        </g>
        <g transform="matrix(-0.320631,-0.50913,0.134252,0.586511,2804.95,1357.85)">
            <path d="M2865.31,2906.07L544.912,585.675" style="fill:none;stroke:rgb(112,0,255);stroke-width:21.02px;stroke-linecap:round;stroke-miterlimit:1.5;"/>
        </g>
    </g>
    <g id="NNE-Assegai" serif:id="NNE Assegai" transform="matrix(-3.35149,0.330144,0.343923,3.49136,4841.86,-5154.52)">
        <g transform="matrix(-0.295508,0.0279433,0.0291095,0.283669,1581.74,1326.79)">
            <path d="M2512.86,1602.31L2542.12,1585.64L1834.03,3323.07C1816.29,3322.63 1803.52,3316.03 1797.18,3301.43L2509.11,1566.79L2512.71,1602.28L2499.45,1456.41L2563.34,1478L2512.72,1602.39L2512.74,1602.38L2572.63,1480.64L2626.06,1535.4L2512.86,1602.31ZM2499.45,1456.41L2691.05,1185.25L2691.08,1185.19L2691.07,1185.22L2691.09,1185.2L2691.07,1185.25L2626.05,1535.37L2577.37,1469.77L2690.89,1185.66L2569.79,1465.91L2499.45,1456.41Z" style="fill:rgb(0,187,51);"/>
        </g>
        <g transform="matrix(-0.295508,0.0279433,0.0291095,0.283669,1581.74,1326.79)">
            <path d="M2512.72,1602.39L2499.45,1456.41L2563.34,1478L2512.72,1602.39ZM2626.06,1535.4L2572.63,1480.64L2512.74,1602.38L2626.06,1535.4ZM2499.45,1456.41L2691.09,1185.2L2569.79,1465.91L2499.45,1456.41ZM2626.05,1535.37L2691.08,1185.19L2577.37,1469.77L2626.05,1535.37ZM2509.11,1566.79L2512.72,1602.39L2542.12,1585.64L1834.03,3323.07C1816.29,3322.63 1803.52,3316.03 1797.18,3301.43L2509.11,1566.79Z" style="fill:none;stroke:rgb(112,0,255);stroke-width:3px;"/>
        </g>
    </g>
    <g id="NNW-Assegai" serif:id="NNW Assegai" transform="matrix(3.48769,0.425157,-0.419562,3.4418,-316.454,-5142.64)">
        <g transform="matrix(0.282524,-0.0348996,0.0344403,0.286292,265.673,1461.36)">
            <path d="M1808.47,1184.94L1808.47,1184.91L1808.49,1184.96L2003.46,1458.71L1929.98,1466.03L1808.65,1185.37L1922.01,1469.62L1870.12,1533.05L1808.48,1184.97L1808.45,1184.91L1808.47,1184.94ZM2003.46,1458.71L1987.09,1602.54L1991.47,1567.55L2703.22,3303.58C2696.35,3317.83 2682.93,3323.98 2664.42,3323.89L1956.73,1585.22L1986.93,1602.56L1870.11,1533.07L1926.76,1480.5L1987.06,1602.63L1987.08,1602.64L1936.5,1478.17L2003.46,1458.71Z" style="fill:rgb(0,187,51);"/>
        </g>
        <g transform="matrix(0.282524,-0.0348996,0.0344403,0.286292,265.673,1461.36)">
            <path d="M1987.08,1602.64L2003.46,1458.71L1936.5,1478.17L1987.08,1602.64ZM1870.11,1533.07L1926.76,1480.5L1987.06,1602.64L1870.11,1533.07ZM2003.46,1458.71L1808.45,1184.91L1929.98,1466.03L2003.46,1458.71ZM1870.12,1533.05L1808.47,1184.91L1922.01,1469.62L1870.12,1533.05ZM1991.47,1567.55L1987.08,1602.64L1956.73,1585.22L2664.42,3323.89C2682.93,3323.98 2696.35,3317.83 2703.22,3303.58L1991.47,1567.55Z" style="fill:none;stroke:rgb(112,0,255);stroke-width:3px;"/>
        </g>
    </g>
    <g id="NWSE-Bow" serif:id="NWSE Bow" transform="matrix(-0.845441,0.520668,-0.870548,-1.41356,4763.36,6059.44)">
        <g id="shaft" transform="matrix(1,0,0,1,-1117.38,875.975)">
            <path d="M1663.84,2679.26C1566.77,2608.7 1596.51,2436.53 1718.27,2351.41C1781.47,2269.78 1828.81,2207.4 1842.94,2152.25C1875.73,2024.24 1819.41,1936.14 1734.87,1896.21L1623.19,1682.49C1636.55,1531.35 1603.01,1451.3 1546.78,1402.59C1485.44,1349.45 1349.26,1313.04 1172.49,1280.71C1046.44,1252.71 1001.53,1172.14 1036.47,1039.84C997.936,1101.45 974.038,1148.43 982.35,1163.2C1006.26,1246.61 1230.4,1366.21 1270.31,1348.77C1310.57,1331.17 1425.56,1366.34 1464.33,1388.94C1528.71,1426.49 1557.95,1477.96 1563.38,1501.87C1577.3,1563.14 1573.64,1625.5 1567.7,1686.28L1659.28,1896.21C1721.84,1942.74 1781.98,1994.85 1800,2051.37C1813.85,2164.89 1766.81,2256.67 1683.69,2335.57C1657.55,2356.62 1630.71,2379.71 1612.12,2408.21C1570.22,2472.45 1567.68,2539.48 1567.56,2591.65C1567.36,2674.05 1606.24,2681.69 1663.84,2679.26Z" style="fill:white;stroke:rgb(112,0,255);stroke-width:2.19px;stroke-linecap:round;stroke-miterlimit:1.5;"/>
        </g>
        <g id="string" transform="matrix(1,0,0,1,-1117.38,875.975)">
            <path d="M982.35,1163.2L1570.89,2642.25" style="fill:none;stroke:rgb(112,0,255);stroke-width:2.19px;stroke-linecap:round;stroke-miterlimit:1.5;"/>
        </g>
        <g transform="matrix(1,-5.55112e-17,-5.55112e-17,1,-59.4884,98.5682)">
            <path d="M604.402,3457.01C509.392,3377.71 536.018,3215.04 662.178,3128.19L708.414,3063.74C493.434,3205.81 500.905,3390.93 604.402,3457.01Z" style="fill:rgb(0,187,51);stroke:rgb(9,120,0);stroke-width:2.19px;"/>
        </g>
        <g transform="matrix(-1.03417,-0.381325,0.633929,-0.620546,645.237,4771.44)">
            <path d="M1702.96,2517.35C1743.79,2600.26 1785.26,2677.57 1845.07,2731.67C1957.43,2833.31 2034.94,2844.36 2165.32,2814.07C2222.44,2800.79 2281.85,2787.88 2329.49,2791.64C2428.13,2799.43 2496.26,2873.66 2540.51,2977" style="fill:none;stroke:rgb(112,0,255);stroke-width:2.48px;stroke-linecap:round;stroke-linejoin:miter;stroke-miterlimit:1.5;"/>
        </g>
        <g transform="matrix(1,-5.55112e-17,-5.55112e-17,1,-181.169,179.39)">
            <path d="M99.145,1736.42C22.416,1892.84 108.309,1957.9 335.496,2043.76C307.292,2063.73 107.535,1964.76 56.547,1881.86C27.896,1835.28 64.233,1808.64 99.145,1736.42Z" style="fill:rgb(0,187,51);stroke:rgb(9,120,0);stroke-width:2.19px;"/>
        </g>
        <g transform="matrix(-1.03852,-0.382929,0.637382,-0.623926,646.04,4785.53)">
            <path d="M968.201,1388.52C1051.35,1392.45 1150.56,1557.2 1166.53,1672.2C1184.65,1802.7 1167.04,1857.42 1179.79,1951.55C1200.19,2102.29 1339.15,2318.8 1478.12,2320.13" style="fill:none;stroke:rgb(112,0,255);stroke-width:2.47px;stroke-linecap:round;stroke-linejoin:miter;stroke-miterlimit:1.5;"/>
        </g>
        <g transform="matrix(1,-5.55112e-17,-5.55112e-17,1,-59.4884,98.5682)">
            <path d="M509.921,2463.76L602.892,2674.31C704.972,2749.71 726.281,2788.7 742.969,2828.14C742.718,2769.21 711.861,2716.65 628.697,2673.09L528.122,2462.69L509.921,2463.76Z" style="fill:rgb(0,187,51);stroke:rgb(9,120,0);stroke-width:2.19px;"/>
        </g>
        <g transform="matrix(-1.01952,-0.345078,0.654384,-0.590064,570.772,4635.63)">
            <path d="M1460.43,2304.39L1706.47,2519.78" style="fill:none;stroke:rgb(112,0,255);stroke-width:2.47px;stroke-linecap:round;stroke-linejoin:miter;stroke-miterlimit:1.5;"/>
        </g>
    </g>
    <g id="SW-Arrow" serif:id="SW Arrow" transform="matrix(-1.72779,0.666208,-0.664463,-1.72326,5124.11,6488.61)">
        <g transform="matrix(1,0,1.66533e-16,1,-1046.78,968.15)">
            <path d="M1284.64,1890.58L1415.79,1833.42L2182.29,1498.54L2174.26,1482.96L2361.8,1426.2L2196.85,1526L2188.61,1513.2L1294.95,1902.73C1172.98,2003.43 1100.12,2038.24 1075.57,2008.22L988.435,2047.55L980.063,2030.78L1067.12,1989.01C1067.34,1955 1176.15,1922.79 1284.64,1890.58Z" style="fill:white;stroke:rgb(112,0,255);stroke-width:1.62px;stroke-linecap:round;stroke-miterlimit:1.5;"/>
        </g>
        <g transform="matrix(1,0,1.66533e-16,1,-66.0804,176.343)">
            <path d="M93.433,2776.25C107.221,2749.14 176.201,2725.71 276.822,2694.95C193.063,2727.02 106.989,2754.6 93.433,2776.25Z" style="fill:rgb(0,187,51);stroke:rgb(9,120,0);stroke-width:1.62px;"/>
        </g>
        <g transform="matrix(1,0,1.66533e-16,1,-66.0804,176.343)">
            <path d="M103.31,2794.81L290.965,2706.47C213.671,2761.93 136.864,2823.83 103.31,2794.81Z" style="fill:rgb(0,187,51);stroke:rgb(9,120,0);stroke-width:1.62px;"/>
        </g>
        <g transform="matrix(1,0,1.66533e-16,1,57.9746,121.333)">
            <path d="M1072.86,2330.52L1082.42,2350.86L1249.79,2276.01L1072.86,2330.52Z" style="fill:rgb(0,187,51);stroke:rgb(9,120,0);stroke-width:1.62px;"/>
        </g>
    </g>
    <g id="WSW-Katana" serif:id="WSW Katana" transform="matrix(1.02269,-0.0831046,0.0831046,1.02269,-296.764,-157.163)">
        <g transform="matrix(3.42536,0,0,3.42536,-3217.72,-8051.75)">
            <path d="M1726.86,3058.65C1581.12,3116.17 1470.16,3156.55 1388.81,3177.5L1366.38,3180.38C1356.13,3179.25 1346.31,3178.12 1336.82,3177C1342.19,3175.56 1352.92,3172.64 1352.92,3172.64C1352.92,3172.64 1601.27,3097.26 1719.96,3043.56C1724.41,3047.82 1726.3,3052.91 1726.86,3058.65Z" style="fill:white;stroke:rgb(112,0,255);stroke-width:0.85px;stroke-linecap:round;stroke-miterlimit:1.5;"/>
        </g>
        <g transform="matrix(3.42536,0,0,3.42536,-3217.72,-8051.75)">
            <path d="M1336.82,3177.01L1353.91,3172.3L1368.35,3172.78C1373.98,3173.53 1373.12,3176.74 1366.25,3180.38L1336.82,3177.01Z" style="fill:rgb(0,187,51);stroke:rgb(9,120,0);stroke-width:0.85px;"/>
        </g>
        <g transform="matrix(3.42536,0,0,3.42536,-3217.72,-8051.75)">
            <path d="M1388.04,3173.44C1451.74,3159.36 1562.86,3119.61 1701.87,3064.27L1699.56,3059.24C1565.61,3111.67 1448.16,3154.94 1386.71,3167.19" style="fill:none;stroke:rgb(112,0,255);stroke-width:0.85px;stroke-linecap:round;stroke-miterlimit:1.5;"/>
        </g>
        <g transform="matrix(3.42536,0,0,3.42536,-3217.72,-8051.75)">
            <path d="M1388.04,3173.44L1388.81,3177.5" style="fill:none;stroke:rgb(112,0,255);stroke-width:0.85px;stroke-linecap:round;stroke-miterlimit:1.5;"/>
        </g>
        <g transform="matrix(3.42536,0,0,3.42536,-3217.72,-8051.75)">
            <path d="M1388.04,3173.44L1388.81,3177.5C1526.54,3139.03 1613.18,3102.07 1703.41,3067.88L1701.87,3064.27C1562.22,3119.91 1454.61,3157.94 1388.04,3173.44Z" style="fill:rgb(0,187,51);stroke:rgb(9,120,0);stroke-width:0.85px;"/>
        </g>
        <g transform="matrix(3.42536,0,0,3.42536,-3217.72,-8051.75)">
            <path d="M1353.91,3172.3L1388.04,3173.44" style="fill:none;stroke:rgb(112,0,255);stroke-width:0.85px;stroke-linecap:round;stroke-miterlimit:1.5;"/>
        </g>
        <g transform="matrix(3.42536,-5.55112e-17,5.55112e-17,3.42536,-3217.72,-8051.75)">
            <path d="M1697.04,3053.6L1703.48,3067.88L1712.21,3064.43L1705.6,3049.91L1697.04,3053.6Z" style="fill:rgb(0,187,51);stroke:rgb(9,120,0);stroke-width:0.85px;"/>
        </g>
        <g transform="matrix(3.42536,-5.55112e-17,5.55112e-17,3.42536,-3217.72,-8051.75)">
            <path d="M1726.3,3055.52L1710.87,3061.54L1708.9,3057.13L1724.5,3050.6C1725.2,3052.2 1725.53,3054.03 1726.3,3055.52Z" style="fill:rgb(0,187,51);stroke:rgb(9,120,0);stroke-width:0.85px;"/>
        </g>
        <g transform="matrix(3.42536,-5.55112e-17,5.55112e-17,3.42536,-3217.72,-8051.75)">
            <path d="M1722.79,3047.57L1707.39,3053.98L1705.6,3050L1719.91,3043.58C1721.58,3045.11 1722.22,3046.13 1722.79,3047.57Z" style="fill:rgb(0,187,51);stroke:rgb(9,120,0);stroke-width:0.85px;"/>
        </g>
        <g transform="matrix(3.42536,-5.55112e-17,5.55112e-17,3.42536,-3217.72,-8051.75)">
            <path d="M1735.62,3071.41C1734.06,3069.85 1732.67,3068.03 1731.36,3066.04C1732.72,3067.91 1734.14,3069.7 1735.62,3071.41Z" style="fill:rgb(0,187,51);stroke:rgb(9,120,0);stroke-width:0.85px;"/>
        </g>
        <g transform="matrix(3.42536,5.55112e-17,-5.55112e-17,3.42536,-3217.72,-8051.75)">
            <path d="M1729.62,3037.52L1854.47,2978.31L1857.56,2978.97C1862.58,2981.97 1865.35,2985.97 1864.9,2991.39L1864,2994.67L1739.5,3057.58" style="fill:white;stroke:rgb(112,0,255);stroke-width:0.85px;stroke-linecap:round;stroke-miterlimit:1.5;"/>
        </g>
        <g transform="matrix(3.42536,0,0,3.42536,-3217.72,-8051.75)">
            <path d="M1729.62,3037.52L1737.24,3041.64L1737.62,3033.65L1744.2,3038.2L1745.14,3030.13L1751.83,3034.45L1753.44,3026.2L1758.76,3030.87L1759.79,3023.2L1765.62,3027.52L1767.19,3019.58L1773.38,3023.76L1773.98,3016.49L1779.68,3020.7L1780.81,3013.41L1787.96,3016.63L1789.02,3009.38L1795.61,3012.83L1796.66,3005.62L1802.97,3009.33L1804.38,3002.2L1810.4,3005.64L1811.63,2998.59L1817.75,3001.94L1819.36,2995.08L1824.97,2998.4L1826.42,2991.57L1832.15,2994.95L1834.06,2988.26L1840.08,2990.94L1841.4,2984.65L1846.94,2987.49L1848,2981.39L1854.12,2983.9L1854.28,2978.31" style="fill:rgb(0,187,51);stroke:rgb(9,120,0);stroke-width:0.85px;"/>
        </g>
        <g transform="matrix(3.42536,0,0,3.42536,-3217.72,-8051.75)">
            <path d="M1739.73,3057.47L1739.5,3046.09L1746.03,3053.99L1746.08,3042.81L1753.84,3050L1753.66,3039.17L1760.98,3046.56L1760.94,3035.33L1768.77,3042.78L1768.05,3031.82L1776.38,3038.86L1775.91,3027.94L1783.6,3035.33L1782.32,3024.54L1790.58,3031.86L1790.07,3020.87L1798.25,3027.92L1797.61,3016.97L1805.32,3024.33L1805.1,3013.28L1812.9,3020.41L1812.32,3009.62L1820.16,3016.82L1819.81,3005.92L1827.96,3012.73L1827.34,3002.18L1834.77,3009.35L1834.52,2998.52L1841.92,3005.62L1841.94,2994.92L1850.1,3001.45L1849.21,2991.21L1856.66,2998.53L1855.76,2988.07L1862.91,2995.04" style="fill:none;stroke:rgb(112,0,255);stroke-width:0.85px;stroke-linecap:round;stroke-linejoin:miter;stroke-miterlimit:1.5;"/>
        </g>
        <g transform="matrix(3.42536,-5.55112e-17,5.55112e-17,3.42536,-3217.72,-8051.75)">
            <path d="M1864.05,2994.45C1862.67,2994.11 1854.79,2983.22 1854.28,2978.31" style="fill:none;stroke:rgb(112,0,255);stroke-width:0.85px;stroke-linecap:round;stroke-miterlimit:1.5;"/>
        </g>
        <g transform="matrix(3.42536,-5.55112e-17,5.55112e-17,3.42536,-3217.72,-8051.75)">
            <path d="M1719.91,3043.58C1719.91,3043.58 1718.58,3039.17 1718.01,3037.19C1717.32,3034.8 1716.79,3032.62 1716.43,3030.77C1726.06,3039.77 1732.52,3053.05 1735.66,3071.45C1735.65,3071.44 1735.63,3071.42 1735.62,3071.41C1734.14,3069.7 1732.72,3067.91 1731.36,3066.04C1729.89,3063.79 1728.53,3061.32 1727.14,3058.74C1727.67,3054.2 1722.36,3044.07 1719.91,3043.58Z" style="fill:rgb(0,187,51);stroke:rgb(9,120,0);stroke-width:0.85px;"/>
        </g>
        <g transform="matrix(0.971401,0.078937,-0.078937,0.971401,272.957,175.857)">
            <path d="M2621.79,2004.17C2626.55,2020.02 2631.87,2034.61 2637.73,2048.1" style="fill:none;stroke:rgb(112,0,255);stroke-width:3px;stroke-linecap:round;stroke-miterlimit:1.5;"/>
        </g>
        <g transform="matrix(0.680312,0.0552828,-0.056814,0.699155,1007.33,817.47)">
            <path d="M2659.3,2089.42C2667.05,2101.87 2675.39,2113.17 2684.25,2123.52" style="fill:none;stroke:rgb(112,0,255);stroke-width:4.22px;stroke-linecap:round;stroke-miterlimit:1.5;"/>
        </g>
        <g transform="matrix(0.971401,0.078937,-0.078937,0.971401,272.957,175.857)">
            <path d="M2684.25,2123.52C2689.55,2129.71 2695.03,2135.57 2700.69,2141.12" style="fill:none;stroke:rgb(112,0,255);stroke-width:3px;stroke-linecap:round;stroke-miterlimit:1.5;"/>
        </g>
        <g transform="matrix(3.42536,0,0,3.42536,-3217.72,-8051.75)">
            <path d="M1721.92,3028.24C1728.08,3031.09 1744.44,3066.39 1740.24,3069.55L1735.68,3071.48C1730.75,3044.47 1722.07,3036.99 1716.4,3030.75L1721.92,3028.24Z" style="fill:white;stroke:rgb(112,0,255);stroke-width:0.85px;stroke-linecap:round;stroke-miterlimit:1.5;"/>
        </g>
    </g>
    <g id="ESE-Katana" serif:id="ESE Katana" transform="matrix(-1.025,-0.0832925,-0.0832925,1.025,4803.35,-164.68)">
        <g transform="matrix(3.42536,0,0,3.42536,-3211.96,-8050.51)">
            <path d="M1719.72,3043.66C1721.79,3041.61 1728.62,3055.72 1726.86,3058.65C1581.12,3116.17 1470.16,3156.55 1388.81,3177.5L1366.38,3180.38C1356.13,3179.25 1346.31,3178.12 1336.82,3177C1342.19,3175.56 1352.92,3172.64 1352.92,3172.64C1352.92,3172.64 1598.94,3097.16 1719.72,3043.66Z" style="fill:white;stroke:rgb(112,0,255);stroke-width:0.85px;stroke-linecap:round;stroke-miterlimit:1.5;"/>
        </g>
        <g transform="matrix(3.42536,0,0,3.42536,-3211.96,-8050.51)">
            <path d="M1388.04,3173.44C1451.74,3159.36 1562.86,3119.61 1701.87,3064.27L1699.56,3059.24C1565.61,3111.67 1448.16,3154.94 1386.71,3167.19" style="fill:none;stroke:rgb(112,0,255);stroke-width:0.85px;stroke-linecap:round;stroke-miterlimit:1.5;"/>
        </g>
        <g transform="matrix(3.42536,0,0,3.42536,-3211.96,-8050.51)">
            <path d="M1388.04,3173.44L1388.81,3177.5" style="fill:none;stroke:rgb(112,0,255);stroke-width:0.85px;stroke-linecap:round;stroke-miterlimit:1.5;"/>
        </g>
        <g transform="matrix(3.42536,0,0,3.42536,-3211.96,-8050.51)">
            <path d="M1388.04,3173.44L1388.81,3177.5C1526.54,3139.03 1613.33,3102.08 1703.56,3067.89L1701.87,3064.27C1562.22,3119.91 1454.61,3157.94 1388.04,3173.44Z" style="fill:rgb(0,187,51);stroke:rgb(9,120,0);stroke-width:0.85px;stroke-linecap:round;stroke-miterlimit:1.5;"/>
        </g>
        <g transform="matrix(3.42536,0,0,3.42536,-3211.96,-8050.51)">
            <path d="M1353.91,3172.3L1388.04,3173.44" style="fill:none;stroke:rgb(112,0,255);stroke-width:0.85px;stroke-linecap:round;stroke-miterlimit:1.5;"/>
        </g>
        <g transform="matrix(3.42536,0,0,3.42536,-3211.96,-8050.51)">
            <path d="M1336.82,3177.01L1353.91,3172.3L1368.35,3172.78C1373.98,3173.53 1373.12,3176.74 1366.25,3180.38L1336.82,3177.01Z" style="fill:rgb(0,187,51);stroke:rgb(9,120,0);stroke-width:0.85px;stroke-linecap:round;stroke-miterlimit:1.5;"/>
        </g>
        <g transform="matrix(3.42536,0,0,3.42536,-3211.96,-8050.51)">
            <path d="M1697.04,3053.6L1703.48,3067.88L1712.21,3064.43L1705.6,3049.91L1697.04,3053.6Z" style="fill:rgb(0,187,51);stroke:rgb(9,120,0);stroke-width:0.85px;"/>
        </g>
        <g transform="matrix(3.42536,0,0,3.42536,-3211.96,-8050.51)">
            <path d="M1714.16,3046.16C1716.13,3045.28 1718.06,3044.42 1719.96,3043.56C1721.44,3044.31 1722.45,3045.54 1723.06,3047.22L1707.39,3053.98L1705.57,3049.91L1714.16,3046.16Z" style="fill:rgb(0,187,51);stroke:rgb(9,120,0);stroke-width:0.85px;"/>
        </g>
        <g transform="matrix(3.42536,0,0,3.42536,-3211.96,-8050.51)">
            <path d="M1724.68,3050.24C1725.76,3052.09 1726.75,3054.07 1726.23,3055.07L1710.87,3061.54L1708.9,3057.13L1724.68,3050.24Z" style="fill:rgb(0,187,51);stroke:rgb(9,120,0);stroke-width:0.85px;"/>
        </g>
        <g transform="matrix(3.42536,0,0,3.42536,-3211.96,-8050.51)">
            <path d="M1729.62,3037.52L1854.47,2978.31L1857.56,2978.97C1862.58,2981.97 1865.35,2985.97 1864.9,2991.39L1864,2994.67L1739.5,3057.58" style="fill:white;stroke:rgb(112,0,255);stroke-width:0.85px;stroke-linecap:round;stroke-miterlimit:1.5;"/>
        </g>
        <g transform="matrix(3.42536,0,0,3.42536,-3211.96,-8050.51)">
            <path d="M1729.62,3037.52L1737.24,3041.64L1737.62,3033.65L1744.2,3038.2L1745.14,3030.13L1751.83,3034.45L1753.44,3026.2L1758.76,3030.87L1759.79,3023.2L1765.62,3027.52L1767.19,3019.58L1773.38,3023.76L1773.98,3016.49L1779.68,3020.7L1780.81,3013.41L1787.96,3016.63L1789.02,3009.38L1795.61,3012.83L1796.66,3005.62L1802.97,3009.33L1804.38,3002.2L1810.4,3005.64L1811.63,2998.59L1817.75,3001.94L1819.36,2995.08L1824.97,2998.4L1826.42,2991.57L1832.15,2994.95L1834.06,2988.26L1840.08,2990.94L1841.4,2984.65L1846.94,2987.49L1848,2981.39L1854.12,2983.9L1854.28,2978.31" style="fill:rgb(0,187,51);stroke:rgb(9,120,0);stroke-width:0.85px;"/>
        </g>
        <g transform="matrix(3.42536,0,0,3.42536,-3211.96,-8050.51)">
            <path d="M1739.73,3057.47L1739.5,3046.09L1746.03,3053.99L1746.08,3042.81L1753.84,3050L1753.66,3039.17L1760.98,3046.56L1760.94,3035.33L1768.77,3042.78L1768.05,3031.82L1776.38,3038.86L1775.91,3027.94L1783.6,3035.33L1782.32,3024.54L1790.58,3031.86L1790.07,3020.87L1798.25,3027.92L1797.61,3016.97L1805.32,3024.33L1805.1,3013.28L1812.9,3020.41L1812.32,3009.62L1820.16,3016.82L1819.81,3005.92L1827.96,3012.73L1827.34,3002.18L1834.77,3009.35L1834.52,2998.52L1841.92,3005.62L1841.94,2994.92L1850.1,3001.45L1849.21,2991.21L1856.66,2998.53L1855.76,2988.07L1862.91,2995.04" style="fill:none;stroke:rgb(112,0,255);stroke-width:0.85px;stroke-linecap:round;stroke-linejoin:miter;stroke-miterlimit:1.5;"/>
        </g>
        <g transform="matrix(3.42536,0,0,3.42536,-3211.96,-8050.51)">
            <path d="M1864.05,2994.45C1862.67,2994.11 1854.79,2983.22 1854.28,2978.31" style="fill:none;stroke:rgb(112,0,255);stroke-width:0.85px;stroke-linecap:round;stroke-miterlimit:1.5;"/>
        </g>
        <g transform="matrix(3.42536,0,0,3.42536,-3211.96,-8050.51)">
            <path d="M1735.68,3071.48L1740.24,3069.55C1745.05,3065.52 1726.7,3029.01 1721.92,3028.24L1716.4,3030.75C1714.75,3034.8 1731.46,3070.61 1735.68,3071.48Z" style="fill:white;stroke:rgb(112,0,255);stroke-width:0.85px;stroke-linecap:round;stroke-miterlimit:1.5;"/>
        </g>
        <g transform="matrix(3.42536,0,0,3.42536,-3211.96,-8050.51)">
            <path d="M1726.69,3058.72C1726.35,3052.85 1724.14,3047.78 1720.03,3043.52L1720.02,3043.49C1719.09,3041.25 1718.58,3039.17 1718.01,3037.19C1717.32,3034.8 1716.79,3032.62 1716.43,3030.77C1726.06,3039.77 1732.52,3053.05 1735.66,3071.45C1732.32,3068.14 1729.32,3063.61 1726.69,3058.72Z" style="fill:rgb(0,187,51);stroke:rgb(9,120,0);stroke-width:0.85px;"/>
        </g>
    </g>
    <g id="East-Halberd" serif:id="East Halberd" transform="matrix(-0.00101818,-0.999999,-1.02057,0.00103912,4242.04,3628.59)">
        <g transform="matrix(3.6428,-1.57981e-18,-2.36972e-18,3.6428,-8899.6,-6904.74)">
            <path d="M2818.3,2212.09L2817.52,2145.99C2815.46,2142.1 2806.14,2139.38 2793.41,2137.16C2803.36,2136.73 2812.03,2135.36 2816.56,2130.95L2820.35,1994.48L2827.57,2064.9C2842.27,2057.71 2853.38,2060.28 2861.87,2069.99C2846.75,2066.02 2834.99,2067.63 2830.65,2081.49L2832.71,2111.93L2834.46,2120.53C2844.08,2110.58 2853.13,2113.68 2861.62,2129.81C2851.14,2120.96 2841.84,2119.48 2834.42,2129.91C2833.8,2133.41 2835.61,2135.06 2840.81,2134.14C2833.41,2133.47 2829.49,2172.56 2827.23,2212.09L2818.3,2212.09Z" style="fill:white;stroke:rgb(112,0,255);stroke-width:0.82px;stroke-linecap:round;stroke-linejoin:miter;stroke-miterlimit:1.5;"/>
        </g>
        <g transform="matrix(3.6428,-1.57981e-18,-2.36972e-18,3.6428,-8899.6,-6904.74)">
            <path d="M2819.98,1994.48L2825.59,2159.75C2822.89,2144.38 2821.38,2159.04 2821.22,2207.86" style="fill:white;stroke:rgb(112,0,255);stroke-width:0.82px;stroke-linecap:round;stroke-linejoin:miter;stroke-miterlimit:1.5;"/>
        </g>
        <g transform="matrix(1,-2.1684e-19,-6.50521e-19,1,-48.6614,71.2479)">
            <path d="M1419.06,1073.4C1421.85,978.579 1423.24,842.049 1436.83,865.976L1423.1,457.007L1419.06,1073.4Z" style="fill:rgb(0,187,51);stroke:rgb(9,120,0);stroke-width:2.97px;"/>
        </g>
        <g transform="matrix(1,-2.1684e-19,-6.50521e-19,1,-48.6614,71.2479)">
            <path d="M1458.73,596.835L1456.09,569.194C1502.37,534.857 1531.68,549.212 1563.65,558.977C1513.82,548.66 1474.29,554.239 1458.73,596.835" style="fill:rgb(0,187,51);stroke:rgb(9,120,0);stroke-width:2.97px;"/>
        </g>
        <g transform="matrix(1,-2.1684e-19,-6.50521e-19,1,-48.6614,71.2479)">
            <path d="M1472.9,775.789L1475.58,761.82C1507.09,730.677 1535.58,744.035 1564.47,770.861C1533.2,745.215 1502.53,741.474 1472.9,775.789Z" style="fill:rgb(0,187,51);stroke:rgb(9,120,0);stroke-width:2.97px;"/>
        </g>
        <g transform="matrix(3.6428,-1.57981e-18,-2.36972e-18,3.6428,-8899.6,-6904.74)">
            <path d="M2815.43,2256.02L2815.43,2219.99L2811.45,2217.76L2807.93,2212.09L2837.43,2212.09L2834.36,2218.11L2829.69,2219.82L2829.47,2256.02C2824.18,2258.48 2819.53,2258.39 2815.43,2256.02Z" style="fill:white;stroke:rgb(112,0,255);stroke-width:0.82px;stroke-linecap:round;stroke-linejoin:miter;stroke-miterlimit:1.5;"/>
        </g>
        <g transform="matrix(3.6428,-1.57981e-18,-2.36972e-18,3.6428,-8899.6,-6904.74)">
            <path d="M2815.43,2264.33C2820.78,2268.55 2825.43,2268.41 2829.47,2264.33L2829.47,2256.02C2824.88,2258.07 2820.2,2258.77 2815.43,2256.53L2815.43,2264.33Z" style="fill:white;stroke:rgb(112,0,255);stroke-width:0.82px;stroke-linecap:round;stroke-linejoin:miter;stroke-miterlimit:1.5;"/>
        </g>
        <g transform="matrix(3.6428,-1.57981e-18,-2.36972e-18,3.6428,-8899.6,-6904.74)">
            <path d="M2822.68,2221.91L2822.68,2253.71" style="fill:none;stroke:rgb(112,0,255);stroke-width:0.82px;stroke-linecap:round;stroke-linejoin:miter;stroke-miterlimit:1.5;"/>
        </g>
        <g transform="matrix(1,-2.1684e-19,-6.50521e-19,1,-48.6614,71.2479)">
            <path d="M1423.81,1118.04L1409.59,1113.62L1409.95,1240.87C1416.93,1244.97 1421.23,1245.41 1424.55,1244.55L1423.81,1118.04Z" style="fill:rgb(0,187,51);stroke:rgb(9,120,0);stroke-width:2.97px;"/>
        </g>
        <g transform="matrix(3.6428,-1.57981e-18,-2.36972e-18,3.6428,-8899.6,-6904.74)">
            <path d="M2815.79,2866.42C2821.07,2870.02 2825.49,2869.38 2829.47,2866.65L2829.47,2264.33C2825.42,2268.25 2820.75,2268.45 2815.43,2264.76L2815.79,2866.42Z" style="fill:white;stroke:rgb(112,0,255);stroke-width:0.82px;stroke-linecap:round;stroke-linejoin:miter;stroke-miterlimit:1.5;"/>
        </g>
        <g transform="matrix(1,-4.33681e-19,-6.50521e-19,1,-48.6614,71.2479)">
            <path d="M1426.19,1288.1C1420.54,1287.89 1415.24,1285.85 1410.28,1282.06L1410.73,3462.54C1416.14,3467.24 1422.67,3469.74 1430.69,3469.31L1426.19,1288.1Z" style="fill:rgb(0,187,51);stroke:rgb(9,120,0);stroke-width:2.97px;"/>
        </g>
    </g>
    <g id="North-Label" serif:id="North Label" transform="matrix(1,0,0,1,450,300.04)">
        <g transform="matrix(1,0,0,1,-3,-224.833)">
            <path d="M1639.13,593.375L1639.21,593.616L1638.36,609.337L1633.36,592.899L1633.49,592.684C1613.43,582.302 1564,624.087 1555.02,661.352L1544.55,665.565C1557.63,604.671 1594.08,556.51 1668.18,550.642C1725.45,548.95 1782.47,628.942 1841.49,751.683C1917.42,790.567 1977.87,780.304 2012.63,744.676L2014.81,636.937L2010.78,633.351L1968.77,633.111L1968.4,646.705C1967.32,646.141 1963.03,631.989 1961.96,631.476C1939.94,620.921 1919.38,621.245 1896.63,631.049C1896.64,631.308 1890.83,625.442 1894.49,622.321C1917.97,602.277 1943.77,578.411 1961.42,557.329C1964.14,554.078 1969.35,554.372 1973.58,553.631C1977.32,575.79 1986.11,587.234 1998.72,590.064C2009.17,592.411 2027.43,593.809 2042.04,589.349C2071.84,580.258 2085.99,560.318 2098.13,547.385L2104.99,547.601C2100.18,568.936 2094.06,589.857 2034.42,624.776C2034.23,628.807 2034.09,633.027 2031.31,632.563L2032.79,1168.61L2024.52,1172.82C1997.54,1159.76 1956.38,1105.66 1907.39,1030.32L1894.6,1030.57L1746.39,1149.21L1720.81,1178.1L1711.62,1179.4L1705.56,1157.36C1689.73,1132.44 1624.84,1094.87 1550.67,1120.67C1534.99,1126.13 1517.71,1144.73 1514.43,1154.83C1497.13,1208.12 1543.48,1237.07 1595.87,1242.76L1595.38,1249.47C1535.21,1247.12 1491.48,1205.37 1493.05,1161.04C1501.54,1105.36 1566.33,1063.23 1640.53,1065.49L1645.62,1060.68L1646.04,896.53C1637.38,871.306 1617.72,853.291 1594.39,854.808C1573.69,856.154 1548.25,862.045 1537.88,898.091L1533.27,897.549C1531.93,840.127 1604.43,783.203 1640.22,803.833L1648.62,798.339L1648.41,601.693L1639.13,593.375ZM1666.35,891.764C1666.35,891.764 1664.3,922.672 1663.19,924.859L1664.73,1061.83L1670.85,1068.24C1705.2,1070.8 1732.9,1086.36 1758.88,1106.99L1769.9,1106.88L1892.67,1012.36L1895.47,1002.2L1852.14,918.695C1852.12,918.68 1852.12,918.681 1852.14,918.696L1833.32,883.367C1787.86,776.414 1738.24,679.284 1677.08,609.395L1663.19,609.091L1666.35,891.764ZM2004.23,768.198C1943.04,797.267 1928.2,796.541 1864.33,776.777L1858,786.88L1968.88,996.699C1980.47,1012.51 1992.58,1027.7 2006.88,1040.35L2013.39,1037.69L2012.93,772.371L2004.23,768.198Z" style="fill:rgb(0,187,51);stroke:rgb(9,120,0);stroke-width:3px;"/>
        </g>
        <g transform="matrix(1,0,0,1,-3,-224.833)">
            <path d="M1639.13,593.375L1639.21,593.616L1638.36,609.337L1633.36,592.899L1633.49,592.684C1613.43,582.302 1564,624.087 1555.02,661.352L1544.55,665.565C1557.63,604.671 1594.08,556.51 1668.18,550.642C1725.45,548.95 1782.47,628.942 1841.49,751.683C1917.42,790.567 1977.87,780.304 2012.63,744.676L2014.81,636.937L2010.78,633.351L1968.77,633.111L1968.4,646.705C1967.32,646.141 1963.03,631.989 1961.96,631.476C1939.94,620.921 1919.38,621.245 1896.63,631.049C1896.64,631.308 1890.83,625.442 1894.49,622.321C1917.97,602.277 1943.77,578.411 1961.42,557.329C1964.14,554.078 1969.35,554.372 1973.58,553.631C1977.32,575.79 1986.11,587.234 1998.72,590.064C2009.17,592.411 2027.43,593.809 2042.04,589.349C2071.84,580.258 2085.99,560.318 2098.13,547.385L2104.99,547.601C2100.18,568.936 2094.06,589.857 2034.42,624.776C2034.23,628.807 2034.09,633.027 2031.31,632.563L2032.79,1168.61L2024.52,1172.82C1997.54,1159.76 1956.38,1105.66 1907.39,1030.32L1894.6,1030.57L1746.39,1149.21L1720.81,1178.1L1711.62,1179.4L1705.56,1157.36C1689.73,1132.44 1624.84,1094.87 1550.67,1120.67C1534.99,1126.13 1517.71,1144.73 1514.43,1154.83C1497.13,1208.12 1543.48,1237.07 1595.87,1242.76L1595.38,1249.47C1535.21,1247.12 1491.48,1205.37 1493.05,1161.04C1501.54,1105.36 1566.33,1063.23 1640.53,1065.49L1645.62,1060.68L1646.04,896.53C1637.38,871.306 1617.72,853.291 1594.39,854.808C1573.69,856.154 1548.25,862.045 1537.88,898.091L1533.27,897.549C1531.93,840.127 1604.43,783.203 1640.22,803.833L1648.62,798.339L1648.41,601.693L1639.13,593.375ZM1831.24,876.574C1785.78,769.621 1738.24,679.284 1677.08,609.395L1663.19,609.091L1665.73,884.8M1663.19,929.934L1664.73,1061.83L1670.85,1068.24C1705.2,1070.8 1732.9,1086.36 1758.88,1106.99L1769.9,1106.88L1892.67,1012.36L1895.47,1002.2L1854.91,923.766M2004.23,768.198C1943.04,797.267 1928.2,796.541 1864.33,776.777L1858,786.88L1968.88,996.699C1980.47,1012.51 1992.58,1027.7 2006.88,1040.35L2013.39,1037.69L2012.93,772.371L2004.23,768.198Z" style="fill:none;stroke:rgb(112,0,255);stroke-width:3px;"/>
        </g>
    </g>
    <g id="North-Pole" serif:id="North Pole" transform="matrix(3.6428,0,0,3.81328,-664.947,-5629.39)">
        <g transform="matrix(1,0,0,1,-296.155,-89.593)">
            <path d="M1090.89,2010.84C1074.97,1986.46 1052.82,1989.97 1025.96,2014.52C1040.99,1991.71 1057.99,1973.74 1091.93,1997.31L1091.93,1988.14L1082.31,1981.28L1095.66,1983.66L1109.42,1981.28L1099.08,1988.13L1098.82,1997.46C1129.68,1975.82 1150.09,1983.88 1165.09,2015.24C1141,1990.27 1119.87,1984.36 1100.43,2010.84" style="fill:white;stroke:rgb(112,0,255);stroke-width:0.8px;stroke-linecap:round;stroke-linejoin:miter;stroke-miterlimit:1.5;"/>
        </g>
        <g transform="matrix(0.274514,0,0,0.274514,305.514,1515.67)">
            <path d="M1781.43,1463.15C1734.04,1393.72 1651.69,1393.09 1568.98,1466.11" style="fill:none;stroke:rgb(112,0,255);stroke-width:2.93px;stroke-linecap:round;stroke-linejoin:miter;stroke-miterlimit:1.5;"/>
        </g>
        <g transform="matrix(-0.274514,0,0,0.274514,1293.61,1515.67)">
            <path d="M1781.43,1463.15C1732.55,1389.9 1649.98,1388.69 1568.98,1466.11" style="fill:none;stroke:rgb(112,0,255);stroke-width:2.93px;stroke-linecap:round;stroke-linejoin:miter;stroke-miterlimit:1.5;"/>
        </g>
        <g transform="matrix(1,0,0,1,-296.286,-89.742)">
            <path d="M1090.89,2038.87L1090.89,2010.84L1100.43,2010.84L1100.43,2038.72L1090.89,2038.87L1090.89,2010.84" style="fill:rgb(0,187,51);stroke:rgb(9,120,0);stroke-width:0.8px;stroke-linecap:round;stroke-linejoin:miter;stroke-miterlimit:1.5;"/>
        </g>
        <g transform="matrix(1,0,0,1,-296.286,-89.742)">
            <path d="M1090.89,2038.87L1090.89,2010.84L1100.43,2010.84L1100.43,2038.72L1090.89,2038.87L1090.89,2010.84" style="fill:rgb(0,187,51);stroke:rgb(9,120,0);stroke-width:0.8px;"/>
        </g>
        <g transform="matrix(1,0,0,1,-296.155,-89.593)">
            <path d="M1086.8,1982.03L1090.89,1744.2L1095.53,1730.98L1100.43,1743.62L1105.16,1981.99L1095.66,1983.99L1086.8,1982.03Z" style="fill:white;stroke:rgb(112,0,255);stroke-width:0.8px;stroke-linecap:round;stroke-linejoin:miter;stroke-miterlimit:1.5;"/>
        </g>
        <g transform="matrix(1,0,0,0.991597,-296.155,-72.9221)">
            <path d="M1095.98,1983.99L1095.98,1805.55" style="fill:none;stroke:rgb(112,0,255);stroke-width:0.81px;stroke-linecap:round;stroke-linejoin:miter;stroke-miterlimit:1.5;"/>
        </g>
        <g transform="matrix(1,0,0,1,-296.155,-89.593)">
            <path d="M1090.89,1744.2C1094.73,1832.96 1097.93,1822.88 1100.53,1744.2" style="fill:none;stroke:rgb(112,0,255);stroke-width:0.8px;stroke-linecap:round;stroke-linejoin:miter;stroke-miterlimit:1.5;"/>
        </g>
        <g transform="matrix(0.262064,0,0,0.274514,332.41,1518.29)">
            <path d="M1799.94,707.706C1798.58,718.603 1796.85,722.073 1793.37,725.971L1803.52,1354.9C1803.22,1355.04 1812.7,1351.8 1812.65,1351.59L1799.94,707.706Z" style="fill:rgb(0,187,51);stroke:rgb(9,120,0);stroke-width:2.99px;"/>
        </g>
        <g transform="matrix(0.274514,0,0,0.274514,305.514,1515.67)">
            <path d="M1799.03,465.073L1806.4,483.079C1790.57,502.017 1799.76,631.084 1800.67,723.667C1795.11,679.152 1789.76,610.696 1784.74,506.11L1799.03,465.073" style="fill:rgb(0,187,51);stroke:rgb(9,120,0);stroke-width:2.93px;"/>
        </g>
        <g transform="matrix(1,0,0,1,-296.155,-89.593)">
            <path d="M1090.89,2038.87L1090.92,2579.08C1094.8,2583.59 1097.22,2584.04 1100.46,2579.21L1100.09,2038.72L1090.89,2038.87Z" style="fill:white;stroke:rgb(112,0,255);stroke-width:0.8px;stroke-linecap:round;stroke-linejoin:miter;stroke-miterlimit:1.5;"/>
        </g>
        <g transform="matrix(0.0179096,0,0,0.422552,777.846,1312.15)">
            <rect x="1216.84" y="1511.08" width="108.291" height="1279.94" style="fill:rgb(0,187,51);stroke:rgb(9,120,0);stroke-width:2.63px;"/>
        </g>
    </g>
    <g id="North-Cross" serif:id="North Cross" transform="matrix(1,0,0,1,450,300.04)">
        <g transform="matrix(1.02937,0,0,1.6098,-54.6189,-778.717)">
            <path d="M1663.19,924.861L1666.35,891.764L1670.56,896.724C1715.44,873.412 1768.22,872.465 1827.37,889.655L1833.32,883.367L1852.14,918.696C1802.19,881.193 1684.66,881.941 1663.19,924.861Z" style="fill:rgb(0,187,51);stroke:rgb(9,120,0);stroke-width:2.22px;"/>
        </g>
        <g transform="matrix(1.02937,0,0,1.6098,-54.6189,-778.717)">
            <path d="M1852.14,918.104C1802.45,881.968 1688.01,882.274 1665.85,921.565M1668.35,893.821L1670.65,896.69C1714.92,868.325 1802.23,879.499 1826.7,889.378L1828.86,887.614" style="fill:none;stroke:rgb(112,0,255);stroke-width:2.22px;"/>
        </g>
    </g>
    <g id="Shield" transform="matrix(1,0,0,1,-907.156,1146.14)">
        <g transform="matrix(1.30472,0,0,1.30472,-559.345,-562.446)">
            <path d="M2851.26,1738.23C2846.41,1741.09 2841.66,1741 2837.03,1737.81C2684.17,1588.9 2597.61,1406.79 2595.06,1182.59C2597.48,1176.52 2601.51,1172.7 2607.99,1172.31C2695.76,1153.35 2773.67,1120.56 2839.11,1070.28C2842.51,1067.83 2846.2,1067.54 2850.25,1069.96C2909.8,1116.93 2989.45,1152.83 3091.36,1176.47C3095.11,1177.92 3097.36,1181.52 3097.35,1188.37C3091.27,1406.91 3007.52,1589.39 2851.26,1738.23Z" style="fill:white;stroke:rgb(112,0,255);stroke-width:2.3px;stroke-linecap:round;stroke-miterlimit:1.5;"/>
        </g>
        <g transform="matrix(0.176213,0,0,0.176213,2655.76,630.074)">
            <circle cx="2816.46" cy="1295.73" r="51.753" style="fill:white;stroke:rgb(112,0,255);stroke-width:17.02px;stroke-linecap:round;stroke-miterlimit:1.5;"/>
        </g>
        <g transform="matrix(0.176213,0,0,0.176213,2735.1,679.177)">
            <circle cx="2816.46" cy="1295.73" r="51.753" style="fill:white;stroke:rgb(112,0,255);stroke-width:17.02px;stroke-linecap:round;stroke-miterlimit:1.5;"/>
        </g>
        <g transform="matrix(0.176213,0,0,0.176213,2807.93,712.313)">
            <circle cx="2816.46" cy="1295.73" r="51.753" style="fill:white;stroke:rgb(112,0,255);stroke-width:17.02px;stroke-linecap:round;stroke-miterlimit:1.5;"/>
        </g>
        <g transform="matrix(0.176213,0,0,0.176213,2889.26,737.679)">
            <circle cx="2816.46" cy="1295.73" r="51.753" style="fill:white;stroke:rgb(112,0,255);stroke-width:17.02px;stroke-linecap:round;stroke-miterlimit:1.5;"/>
        </g>
        <g transform="matrix(0.176213,0,0,0.176213,2961.08,763.972)">
            <circle cx="2816.46" cy="1295.73" r="51.753" style="fill:white;stroke:rgb(112,0,255);stroke-width:17.02px;stroke-linecap:round;stroke-miterlimit:1.5;"/>
        </g>
        <g transform="matrix(0.176213,0,0,0.176213,2957.85,846.522)">
            <circle cx="2816.46" cy="1295.73" r="51.753" style="fill:white;stroke:rgb(112,0,255);stroke-width:17.02px;stroke-linecap:round;stroke-miterlimit:1.5;"/>
        </g>
        <g transform="matrix(0.176213,0,0,0.176213,2946.72,924.557)">
            <circle cx="2816.46" cy="1295.73" r="51.753" style="fill:white;stroke:rgb(112,0,255);stroke-width:17.02px;stroke-linecap:round;stroke-miterlimit:1.5;"/>
        </g>
        <g transform="matrix(0.176213,0,0,0.176213,2931.38,998.587)">
            <circle cx="2816.46" cy="1295.73" r="51.753" style="fill:white;stroke:rgb(112,0,255);stroke-width:17.02px;stroke-linecap:round;stroke-miterlimit:1.5;"/>
        </g>
        <g transform="matrix(0.176213,0,0,0.176213,2907.96,1072.9)">
            <circle cx="2816.46" cy="1295.73" r="51.753" style="fill:white;stroke:rgb(112,0,255);stroke-width:17.02px;stroke-linecap:round;stroke-miterlimit:1.5;"/>
        </g>
        <g transform="matrix(0.176213,0,0,0.176213,2879.87,1145.41)">
            <circle cx="2816.46" cy="1295.73" r="51.753" style="fill:white;stroke:rgb(112,0,255);stroke-width:17.02px;stroke-linecap:round;stroke-miterlimit:1.5;"/>
        </g>
        <g transform="matrix(0.176213,0,0,0.176213,2846.95,1213.06)">
            <circle cx="2816.46" cy="1295.73" r="51.753" style="fill:white;stroke:rgb(112,0,255);stroke-width:17.02px;stroke-linecap:round;stroke-miterlimit:1.5;"/>
        </g>
        <g transform="matrix(0.176213,0,0,0.176213,2808.18,1277.13)">
            <circle cx="2816.46" cy="1295.73" r="51.753" style="fill:white;stroke:rgb(112,0,255);stroke-width:17.02px;stroke-linecap:round;stroke-miterlimit:1.5;"/>
        </g>
        <g transform="matrix(0.176213,0,0,0.176213,2766.1,1339.13)">
            <circle cx="2816.46" cy="1295.73" r="51.753" style="fill:white;stroke:rgb(112,0,255);stroke-width:17.02px;stroke-linecap:round;stroke-miterlimit:1.5;"/>
        </g>
        <g transform="matrix(0.176213,0,0,0.176213,2714.54,1400.54)">
            <circle cx="2816.46" cy="1295.73" r="51.753" style="fill:white;stroke:rgb(112,0,255);stroke-width:17.02px;stroke-linecap:round;stroke-miterlimit:1.5;"/>
        </g>
        <g transform="matrix(0.176213,0,0,0.176213,2655.86,1452.2)">
            <circle cx="2816.46" cy="1295.73" r="51.753" style="fill:white;stroke:rgb(112,0,255);stroke-width:17.02px;stroke-linecap:round;stroke-miterlimit:1.5;"/>
        </g>
        <g transform="matrix(0.176213,0,0,0.176213,2599.16,1401.71)">
            <circle cx="2816.46" cy="1295.73" r="51.753" style="fill:white;stroke:rgb(112,0,255);stroke-width:17.02px;stroke-linecap:round;stroke-miterlimit:1.5;"/>
        </g>
        <g transform="matrix(0.176213,0,0,0.176213,2548.07,1339.01)">
            <circle cx="2816.46" cy="1295.73" r="51.753" style="fill:white;stroke:rgb(112,0,255);stroke-width:17.02px;stroke-linecap:round;stroke-miterlimit:1.5;"/>
        </g>
        <g transform="matrix(0.176213,0,0,0.176213,2504.14,1277.77)">
            <circle cx="2816.46" cy="1295.73" r="51.753" style="fill:white;stroke:rgb(112,0,255);stroke-width:17.02px;stroke-linecap:round;stroke-miterlimit:1.5;"/>
        </g>
        <g transform="matrix(0.176213,0,0,0.176213,2466.67,1211.4)">
            <circle cx="2816.46" cy="1295.73" r="51.753" style="fill:white;stroke:rgb(112,0,255);stroke-width:17.02px;stroke-linecap:round;stroke-miterlimit:1.5;"/>
        </g>
        <g transform="matrix(0.176213,0,0,0.176213,2433.43,1144.27)">
            <circle cx="2816.46" cy="1295.73" r="51.753" style="fill:white;stroke:rgb(112,0,255);stroke-width:17.02px;stroke-linecap:round;stroke-miterlimit:1.5;"/>
        </g>
        <g transform="matrix(0.176213,0,0,0.176213,2405.31,1070.86)">
            <circle cx="2816.46" cy="1295.73" r="51.753" style="fill:white;stroke:rgb(112,0,255);stroke-width:17.02px;stroke-linecap:round;stroke-miterlimit:1.5;"/>
        </g>
        <g transform="matrix(0.176213,0,0,0.176213,2383.03,998.313)">
            <circle cx="2816.46" cy="1295.73" r="51.753" style="fill:white;stroke:rgb(112,0,255);stroke-width:17.02px;stroke-linecap:round;stroke-miterlimit:1.5;"/>
        </g>
        <g transform="matrix(0.176213,0,0,0.176213,2366.59,924.531)">
            <circle cx="2816.46" cy="1295.73" r="51.753" style="fill:white;stroke:rgb(112,0,255);stroke-width:17.02px;stroke-linecap:round;stroke-miterlimit:1.5;"/>
        </g>
        <g transform="matrix(0.176213,0,0,0.176213,2357.47,845.726)">
            <circle cx="2816.46" cy="1295.73" r="51.753" style="fill:white;stroke:rgb(112,0,255);stroke-width:17.02px;stroke-linecap:round;stroke-miterlimit:1.5;"/>
        </g>
        <g transform="matrix(0.176213,0,0,0.176213,2354.94,764.429)">
            <circle cx="2816.46" cy="1295.73" r="51.753" style="fill:white;stroke:rgb(112,0,255);stroke-width:17.02px;stroke-linecap:round;stroke-miterlimit:1.5;"/>
        </g>
        <g transform="matrix(0.176213,0,0,0.176213,2425.83,737.377)">
            <circle cx="2816.46" cy="1295.73" r="51.753" style="fill:white;stroke:rgb(112,0,255);stroke-width:17.02px;stroke-linecap:round;stroke-miterlimit:1.5;"/>
        </g>
        <g transform="matrix(0.176213,0,0,0.176213,2505.79,712.209)">
            <circle cx="2816.46" cy="1295.73" r="51.753" style="fill:white;stroke:rgb(112,0,255);stroke-width:17.02px;stroke-linecap:round;stroke-miterlimit:1.5;"/>
        </g>
        <g transform="matrix(0.176213,0,0,0.176213,2579.26,677.977)">
            <circle cx="2816.46" cy="1295.73" r="51.753" style="fill:white;stroke:rgb(112,0,255);stroke-width:17.02px;stroke-linecap:round;stroke-miterlimit:1.5;"/>
        </g>
        <g transform="matrix(1.12218,0,0,1.15519,-39.812,-351.749)">
            <path d="M2851.26,1738.23C2846.41,1741.09 2841.66,1741 2837.03,1737.81C2677.45,1574.31 2595.02,1384.07 2599.66,1175.47C2602.08,1169.4 2606.12,1165.59 2612.59,1165.19C2698.25,1149.91 2771.55,1124.27 2839.11,1070.28C2842.51,1067.83 2846.2,1067.54 2850.25,1069.96C2904.28,1117.63 2979.99,1146.2 3087.01,1169.19C3090.75,1170.64 3093,1174.24 3092.99,1181.09C3090.65,1389.32 3011.15,1579.36 2851.26,1738.23Z" style="fill:none;stroke:rgb(112,0,255);stroke-width:2.63px;stroke-linecap:round;stroke-miterlimit:1.5;"/>
        </g>
        <g transform="matrix(1,0,0,1,125.335,-586.253)">
            <path d="M3028.84,1481.94C2950.04,1542.06 2861.8,1577.62 2764.87,1590.56C2869.56,1611.1 2965.17,1597.83 3028.84,1481.94" style="fill:rgb(0,187,51);"/>
        </g>
        <g transform="matrix(1,0,0,1,125.335,-586.253)">
            <path d="M3292.11,1598.56C3217.25,1856.9 3127.08,2057.1 3028.84,2226.66C3192.56,2024.56 3282.75,1839.47 3292.11,1598.56Z" style="fill:rgb(0,187,51);"/>
        </g>
        <g transform="matrix(1,0,0,1,125.335,-586.253)">
            <path d="M3034.58,1485.88C3043.95,1679.75 3148.91,1675.34 3291.14,1593.62C3216.4,1642.28 3133.12,1675.51 3035.44,1682.72L3034.58,1485.88Z" style="fill:rgb(0,187,51);"/>
        </g>
        <g transform="matrix(1,0,0,1,125.335,-586.253)">
            <path d="M2764.97,1601.84C2816.68,1649.61 2914.01,1692.96 3016.48,1698.4L3022.43,2231.05C3019.46,1996.21 2932.74,1790.02 2764.97,1601.84Z" style="fill:rgb(0,187,51);"/>
        </g>
    </g>
    <g id="Cross-Dagger" serif:id="Cross Dagger" transform="matrix(0.0516437,-1.06732,1.06732,0.0516437,1061.26,3194.68)">
        <g transform="matrix(1.00652,0.00601783,0.00601783,1.00555,223.08,-688.422)">
            <path d="M857.005,1429.38C855.795,1418.78 860.228,1411.1 865.85,1407.43C873.711,1402.31 886.583,1401.26 893.671,1408.51C898.634,1413.59 901.507,1419.19 900.836,1426.38C900.546,1429.48 899.596,1432.87 897.868,1436.64C895.467,1441.89 885.363,1449.39 876.486,1447.36" style="fill:white;stroke:rgb(112,0,255);stroke-width:2.77px;stroke-linecap:round;stroke-linejoin:miter;stroke-miterlimit:1.5;"/>
        </g>
        <g transform="matrix(1,-2.77556e-17,2.77556e-17,1,237.508,-675.113)">
            <path d="M738.148,1546.75C736.168,1541.05 751.372,1536.31 757.292,1530.07C766.338,1520.54 777.753,1500.44 789.98,1487.31C802.28,1474.1 819.867,1460.47 831.087,1450.82C839.644,1443.46 857.303,1429.38 857.303,1429.38C865.039,1433.58 871.814,1439.34 877.427,1447C877.427,1447 864.394,1463.97 858.21,1472.69C850.786,1483.17 842.662,1498.49 832.884,1509.85C821.993,1522.5 805.273,1540.89 792.868,1548.6C778.639,1557.45 778.563,1575.24 774.315,1576.6L738.148,1546.75Z" style="fill:white;stroke:rgb(112,0,255);stroke-width:2.81px;stroke-linecap:round;stroke-linejoin:miter;stroke-miterlimit:1.5;"/>
        </g>
        <g transform="matrix(1,-6.93889e-18,6.93889e-18,1,237.508,-675.113)">
            <path d="M895.17,1410.52C897.967,1416.48 896.899,1423.12 895.236,1426.55C894.096,1428.9 889.551,1431.4 886.29,1430.9C883.762,1430.51 881.793,1425.03 878.75,1423.07C875.189,1420.77 867.18,1420.71 865.587,1424.3C863.843,1428.22 868.184,1435.32 871.084,1438.54C873.384,1441.1 878.017,1446.63 878.017,1446.63C885.74,1448.87 894.675,1441.91 898.21,1435.15C901.338,1429.17 901.886,1419.04 895.17,1410.52Z" style="fill:rgb(0,187,51);stroke:rgb(112,0,255);stroke-width:2.81px;"/>
        </g>
        <g transform="matrix(1,0,0,1,237.508,-675.113)">
            <path d="M773.551,1574.82C772.054,1573.15 769.061,1569.81 769.061,1569.81C772.452,1564.09 777.738,1556.35 784.513,1549.6C793.966,1540.18 804.7,1531.66 807.699,1529.18C821.622,1517.68 827.937,1508.94 833.869,1499.44C842.38,1485.81 854.287,1468.72 859.563,1460.02C863.131,1454.13 875.633,1446.38 876.208,1447.24C867.071,1459.36 854.795,1485.23 832.848,1508.66C822.071,1520.17 806.859,1540.16 796.118,1545.56C785.349,1550.97 779.128,1564.02 777.354,1570.02C776.156,1574.06 773.58,1573.24 773.551,1574.82" style="fill:rgb(0,187,51);stroke:rgb(112,0,255);stroke-width:2.81px;"/>
        </g>
        <g transform="matrix(1,0,0,1,236.552,-674.407)">
            <path d="M791.731,1551.47C783.729,1542.44 773.448,1533.51 760.37,1524.7" style="fill:rgb(0,187,51);stroke:rgb(112,0,255);stroke-width:2.81px;stroke-linecap:round;stroke-linejoin:miter;stroke-miterlimit:1.5;"/>
        </g>
        <g transform="matrix(1,0,0,1,232.447,-670.335)">
            <path d="M791.731,1551.47C783.729,1542.44 773.448,1533.51 760.37,1524.7" style="fill:rgb(0,187,51);stroke:rgb(112,0,255);stroke-width:2.81px;stroke-linecap:round;stroke-linejoin:miter;stroke-miterlimit:1.5;"/>
        </g>
        <g transform="matrix(1.03025,0,0,1.03025,205.639,-713.077)">
            <path d="M791.731,1551.47C783.729,1542.44 773.448,1533.51 760.37,1524.7" style="fill:rgb(0,187,51);stroke:rgb(112,0,255);stroke-width:2.73px;stroke-linecap:round;stroke-linejoin:miter;stroke-miterlimit:1.5;"/>
        </g>
        <g transform="matrix(1.17766,0,0,1.17766,83.581,-929.745)">
            <path d="M791.731,1551.47C783.729,1542.44 773.448,1533.51 760.37,1524.7" style="fill:rgb(0,187,51);stroke:rgb(112,0,255);stroke-width:2.38px;stroke-linecap:round;stroke-linejoin:miter;stroke-miterlimit:1.5;"/>
        </g>
        <g transform="matrix(1.05877,0,0,1.05877,195.251,-769.154)">
            <path d="M791.731,1551.47C783.729,1542.44 773.448,1533.51 760.37,1524.7" style="fill:rgb(0,187,51);stroke:rgb(112,0,255);stroke-width:2.65px;stroke-linecap:round;stroke-linejoin:miter;stroke-miterlimit:1.5;"/>
        </g>
        <g transform="matrix(1.08556,0,0,1.08556,178.315,-814.684)">
            <path d="M791.731,1551.47C783.729,1542.44 773.448,1533.51 760.37,1524.7" style="fill:rgb(0,187,51);stroke:rgb(112,0,255);stroke-width:2.59px;stroke-linecap:round;stroke-linejoin:miter;stroke-miterlimit:1.5;"/>
        </g>
        <g transform="matrix(1.13499,0,0,1.13499,144.418,-895.087)">
            <path d="M791.731,1551.47C783.729,1542.44 773.448,1533.51 760.37,1524.7" style="fill:rgb(0,187,51);stroke:rgb(112,0,255);stroke-width:2.47px;stroke-linecap:round;stroke-linejoin:miter;stroke-miterlimit:1.5;"/>
        </g>
        <g transform="matrix(1.14538,0,0,1.14538,139.968,-915.064)">
            <path d="M791.731,1551.47C783.729,1542.44 773.448,1533.51 760.37,1524.7" style="fill:rgb(0,187,51);stroke:rgb(112,0,255);stroke-width:2.45px;stroke-linecap:round;stroke-linejoin:miter;stroke-miterlimit:1.5;"/>
        </g>
        <g transform="matrix(1.15883,0,0,1.15883,133.338,-940.724)">
            <path d="M791.731,1551.47C783.729,1542.44 773.448,1533.51 760.37,1524.7" style="fill:rgb(0,187,51);stroke:rgb(112,0,255);stroke-width:2.42px;stroke-linecap:round;stroke-linejoin:miter;stroke-miterlimit:1.5;"/>
        </g>
        <g transform="matrix(1.1849,0,0,1.1849,117.174,-984.927)">
            <path d="M791.731,1551.47C783.729,1542.44 773.448,1533.51 760.37,1524.7" style="fill:rgb(0,187,51);stroke:rgb(112,0,255);stroke-width:2.37px;stroke-linecap:round;stroke-linejoin:miter;stroke-miterlimit:1.5;"/>
        </g>
        <g transform="matrix(1.19497,0,0,1.19497,113.718,-1005.07)">
            <path d="M791.731,1551.47C783.729,1542.44 773.448,1533.51 760.37,1524.7" style="fill:rgb(0,187,51);stroke:rgb(112,0,255);stroke-width:2.35px;stroke-linecap:round;stroke-linejoin:miter;stroke-miterlimit:1.5;"/>
        </g>
        <g transform="matrix(1.19606,0,0,1.19606,116.763,-1011.07)">
            <path d="M791.731,1551.47C783.729,1542.44 773.448,1533.51 760.37,1524.7" style="fill:rgb(0,187,51);stroke:rgb(112,0,255);stroke-width:2.35px;stroke-linecap:round;stroke-linejoin:miter;stroke-miterlimit:1.5;"/>
        </g>
        <g transform="matrix(1.19788,0,0,1.19788,119.341,-1018.31)">
            <path d="M791.731,1551.47C783.729,1542.44 773.448,1533.51 760.37,1524.7" style="fill:rgb(0,187,51);stroke:rgb(112,0,255);stroke-width:2.34px;stroke-linecap:round;stroke-linejoin:miter;stroke-miterlimit:1.5;"/>
        </g>
        <g transform="matrix(1.20132,0,0,1.20132,120.569,-1027.29)">
            <path d="M791.731,1551.47C783.729,1542.44 773.448,1533.51 760.37,1524.7" style="fill:rgb(0,187,51);stroke:rgb(112,0,255);stroke-width:2.34px;stroke-linecap:round;stroke-linejoin:miter;stroke-miterlimit:1.5;"/>
        </g>
        <g transform="matrix(1.15684,0,0,1.15684,159.262,-963.561)">
            <path d="M791.731,1551.47C783.729,1542.44 773.448,1533.51 760.37,1524.7" style="fill:rgb(0,187,51);stroke:rgb(112,0,255);stroke-width:2.43px;stroke-linecap:round;stroke-linejoin:miter;stroke-miterlimit:1.5;"/>
        </g>
        <g transform="matrix(1.13995,0,0,1.13995,176.763,-941.866)">
            <path d="M791.731,1551.47C783.729,1542.44 773.448,1533.51 760.37,1524.7" style="fill:rgb(0,187,51);stroke:rgb(112,0,255);stroke-width:2.46px;stroke-linecap:round;stroke-linejoin:miter;stroke-miterlimit:1.5;"/>
        </g>
        <g transform="matrix(1.12328,0,0,1.12328,193.66,-920.657)">
            <path d="M791.731,1551.47C783.729,1542.44 773.448,1533.51 760.37,1524.7" style="fill:rgb(0,187,51);stroke:rgb(112,0,255);stroke-width:2.5px;stroke-linecap:round;stroke-linejoin:miter;stroke-miterlimit:1.5;"/>
        </g>
        <g transform="matrix(1.0762,0,0,1.0762,234.375,-852.702)">
            <path d="M791.731,1551.47C783.729,1542.44 773.448,1533.51 760.37,1524.7" style="fill:rgb(0,187,51);stroke:rgb(112,0,255);stroke-width:2.61px;stroke-linecap:round;stroke-linejoin:miter;stroke-miterlimit:1.5;"/>
        </g>
        <g transform="matrix(1.04928,0,0,1.04928,259.247,-815.649)">
            <path d="M791.731,1551.47C783.729,1542.44 773.448,1533.51 760.37,1524.7" style="fill:rgb(0,187,51);stroke:rgb(112,0,255);stroke-width:2.68px;stroke-linecap:round;stroke-linejoin:miter;stroke-miterlimit:1.5;"/>
        </g>
        <g transform="matrix(1.00276,0,0,1.00276,299.188,-749.625)">
            <path d="M791.731,1551.47C783.729,1542.44 773.448,1533.51 760.37,1524.7" style="fill:rgb(0,187,51);stroke:rgb(112,0,255);stroke-width:2.8px;stroke-linecap:round;stroke-linejoin:miter;stroke-miterlimit:1.5;"/>
        </g>
        <g transform="matrix(0.955976,0,0,0.955976,339.542,-681.675)">
            <path d="M791.731,1551.47C783.729,1542.44 773.448,1533.51 760.37,1524.7" style="fill:rgb(0,187,51);stroke:rgb(112,0,255);stroke-width:2.94px;stroke-linecap:round;stroke-linejoin:miter;stroke-miterlimit:1.5;"/>
        </g>
        <g transform="matrix(0.91423,0,0,0.91423,376.249,-622.779)">
            <path d="M791.731,1551.47C783.729,1542.44 773.448,1533.51 760.37,1524.7" style="fill:rgb(0,187,51);stroke:rgb(112,0,255);stroke-width:3.07px;stroke-linecap:round;stroke-linejoin:miter;stroke-miterlimit:1.5;"/>
        </g>
        <g transform="matrix(0.870489,0,0,0.870489,413.992,-559.74)">
            <path d="M791.731,1551.47C783.729,1542.44 773.448,1533.51 760.37,1524.7" style="fill:rgb(0,187,51);stroke:rgb(112,0,255);stroke-width:3.23px;stroke-linecap:round;stroke-linejoin:miter;stroke-miterlimit:1.5;"/>
        </g>
        <g transform="matrix(0.843096,0,0,0.843096,438.962,-521.605)">
            <path d="M791.731,1551.47C783.729,1542.44 773.448,1533.51 760.37,1524.7" style="fill:rgb(0,187,51);stroke:rgb(112,0,255);stroke-width:3.33px;stroke-linecap:round;stroke-linejoin:miter;stroke-miterlimit:1.5;"/>
        </g>
        <g transform="matrix(0.80496,0,0,0.80496,472.524,-467.158)">
            <path d="M791.731,1551.47C783.729,1542.44 773.448,1533.51 760.37,1524.7" style="fill:rgb(0,187,51);stroke:rgb(112,0,255);stroke-width:3.49px;stroke-linecap:round;stroke-linejoin:miter;stroke-miterlimit:1.5;"/>
        </g>
        <g transform="matrix(0.767309,0,0,0.767309,505.476,-413.048)">
            <path d="M791.731,1551.47C783.729,1542.44 773.448,1533.51 760.37,1524.7" style="fill:rgb(0,187,51);stroke:rgb(112,0,255);stroke-width:3.66px;stroke-linecap:round;stroke-linejoin:miter;stroke-miterlimit:1.5;"/>
        </g>
        <g transform="matrix(1.10193,0,0,1.10193,145.604,-818.385)">
            <path d="M791.731,1551.47C783.729,1542.44 773.448,1533.51 760.37,1524.7" style="fill:rgb(0,187,51);stroke:rgb(112,0,255);stroke-width:2.55px;stroke-linecap:round;stroke-linejoin:miter;stroke-miterlimit:1.5;"/>
        </g>
        <g transform="matrix(1,0,0,1,237.508,-675.113)">
            <path d="M307.312,2054.52L700.128,1592.54C706.06,1596.2 711.691,1600.15 716.733,1604.64C722.132,1609.45 726.857,1614.89 730.554,1621.28L307.312,2054.52" style="fill:white;stroke:rgb(112,0,255);stroke-width:2.81px;stroke-linecap:round;stroke-linejoin:miter;stroke-miterlimit:1.5;"/>
        </g>
        <g transform="matrix(1,0,0,1,237.508,-675.113)">
            <path d="M702.299,1621.88L692.591,1612.6L404.643,1946.39L702.299,1621.88Z" style="fill:rgb(0,187,51);stroke:rgb(9,120,0);stroke-width:2.81px;"/>
        </g>
        <g transform="matrix(1,0,0,1,237.508,-675.113)">
            <path d="M432.071,1918.61L702.299,1621.88" style="fill:none;stroke:rgb(112,0,255);stroke-width:2.81px;stroke-linecap:round;stroke-linejoin:miter;stroke-miterlimit:1.5;"/>
        </g>
        <g transform="matrix(1,0,0,1,237.508,-675.113)">
            <path d="M752.874,1599.14C782.508,1631.75 809.419,1647.43 834.702,1637.32C858.072,1625.53 862.613,1611.45 850.181,1603.03C846.502,1600.54 832.8,1601.84 830.589,1610.98C830.151,1614.61 831.216,1617.72 835.139,1619.85C837.929,1624.55 836.388,1627.94 832.029,1629.2C817.081,1636.12 794.333,1616.75 767.971,1583.74L752.874,1599.14Z" style="fill:white;stroke:rgb(112,0,255);stroke-width:2.81px;stroke-linecap:round;stroke-linejoin:miter;stroke-miterlimit:1.5;"/>
        </g>
        <g transform="matrix(1,0,0,1,237.508,-675.113)">
            <path d="M702.943,1585.04L738.716,1546.75C762.194,1563.79 769.027,1572.38 773.353,1577.53L737.159,1615.61C728.128,1604.17 716.823,1593.92 702.943,1585.04Z" style="fill:white;stroke:rgb(112,0,255);stroke-width:2.81px;stroke-linecap:round;stroke-linejoin:miter;stroke-miterlimit:1.5;"/>
        </g>
        <g transform="matrix(1,0,0,1,237.508,-675.113)">
            <path d="M761.717,1596.04L752.874,1599.14C781.84,1632.64 809.138,1644.71 830.552,1638.84C856.471,1626.27 856.429,1619.07 855.538,1612.05C852.755,1607.03 849.212,1605.63 844.585,1611.62C842.429,1618.48 843.665,1622.31 845.539,1623.66C846.667,1611.26 851.872,1616.85 850.703,1619.54C847.66,1626.55 841.158,1631.47 829.89,1634.12C809.768,1639.07 786.308,1620.33 761.717,1596.04Z" style="fill:rgb(0,187,51);stroke:rgb(9,120,0);stroke-width:2.81px;stroke-linecap:round;stroke-linejoin:miter;stroke-miterlimit:1.5;"/>
        </g>
        <g transform="matrix(1,0,0,1,237.508,-675.113)">
            <path d="M718.203,1568.7C676.398,1513.76 660.411,1514.59 649.87,1524.1C648.492,1528.56 653.35,1527.79 654.048,1532.98C655.657,1544.92 649.334,1550.95 632.077,1544.13C621.828,1533.05 638.437,1513.81 655.747,1507.87C674.256,1504.44 706.286,1517.93 734.619,1550.07L718.203,1568.7Z" style="fill:white;stroke:rgb(112,0,255);stroke-width:2.81px;stroke-linecap:round;stroke-linejoin:miter;stroke-miterlimit:1.5;"/>
        </g>
        <g transform="matrix(1,0,0,1,237.508,-675.113)">
            <path d="M731.321,1553.81C718.121,1539.51 704.028,1526.32 686.18,1517.87" style="fill:none;stroke:rgb(112,0,255);stroke-width:2.81px;stroke-linecap:round;stroke-linejoin:miter;stroke-miterlimit:1.5;"/>
        </g>
        <g transform="matrix(1,0,0,1,237.508,-675.113)">
            <path d="M732.49,1621.88L737.159,1616.9C725.692,1604.44 714.393,1593.96 703.296,1585.87L699.247,1590.75C712.523,1600.23 723.877,1610.49 732.49,1621.88Z" style="fill:white;stroke:rgb(112,0,255);stroke-width:2.81px;stroke-linecap:round;stroke-linejoin:miter;stroke-miterlimit:1.5;"/>
        </g>
        <g transform="matrix(1,0,0,1,237.508,-675.113)">
            <path d="M648.378,1524.59C665.51,1504.66 691.147,1532.22 718.129,1567.29L722.592,1556.15C699.808,1527.42 679.829,1514.52 664.003,1513.86C651.572,1513.95 645.505,1517.71 643.138,1523.6C641.014,1528.88 649.836,1532.31 649.714,1535.84C643.639,1543.37 647.662,1532.8 642.965,1533.31C639.176,1532.9 643.131,1539.27 634.479,1542.21C637.078,1545.6 648.385,1546.28 650.513,1543.03C655.96,1532.47 650.536,1531.13 648.378,1524.59" style="fill:rgb(0,187,51);stroke:rgb(9,120,0);stroke-width:2.81px;stroke-linecap:round;stroke-linejoin:miter;stroke-miterlimit:1.5;"/>
        </g>
        <g transform="matrix(1,0,0,1,237.508,-675.113)">
            <path d="M764.615,1587.28C781.5,1609.28 787.907,1614.78 803.056,1624.8" style="fill:none;stroke:rgb(112,0,255);stroke-width:2.81px;stroke-linecap:round;stroke-linejoin:miter;stroke-miterlimit:1.5;"/>
        </g>
        <g transform="matrix(1,0,0,1,261.016,-654.35)">
            <path d="M707.776,1585L739.008,1550.72L742.381,1553.81L710.832,1588.55L707.776,1585Z" style="fill:rgb(0,187,51);stroke:rgb(9,120,0);stroke-width:2.81px;"/>
        </g>
        <g transform="matrix(1,0,0,1,237.508,-675.113)">
            <path d="M759.789,1570.54L729.274,1603.67" style="fill:none;stroke:rgb(112,0,255);stroke-width:2.81px;stroke-linecap:round;stroke-linejoin:miter;stroke-miterlimit:1.5;"/>
        </g>
        <g transform="matrix(1,0,0,1,237.508,-675.113)">
            <path d="M707.776,1585L739.008,1550.72L742.381,1553.81L711.694,1587.98L707.776,1585Z" style="fill:none;stroke:rgb(112,0,255);stroke-width:2.81px;stroke-linecap:round;stroke-linejoin:miter;stroke-miterlimit:1.5;"/>
        </g>
    </g>
    <g id="Cross-Stiletto" serif:id="Cross Stiletto" transform="matrix(1.18948,1.1908,-1.86868,1.86661,7283.69,-4530.15)">
        <g transform="matrix(1,-5.55112e-17,0,1,-147.504,-92.2856)">
            <path d="M915.968,3204.31C911.041,3180.02 911.339,3157.47 915.968,3136.6L932.559,3136.6C938.093,3160.34 936.821,3182.64 932.559,3204.31L915.968,3204.31" style="fill:white;stroke:rgb(112,0,255);stroke-width:1.35px;stroke-linecap:round;stroke-linejoin:miter;stroke-miterlimit:1.5;"/>
        </g>
        <g transform="matrix(1,-5.55112e-17,0,1,-147.504,-92.2856)">
            <path d="M916.677,3109.69L916.632,3104.95L920.648,3104.83C922.604,3102.52 926.587,3101.63 928.883,3104.74L932.754,3104.79L932.696,3109.61C927.703,3107.48 922.243,3107.09 916.677,3109.69Z" style="fill:white;stroke:rgb(112,0,255);stroke-width:1.35px;stroke-linecap:round;stroke-linejoin:miter;stroke-miterlimit:1.5;"/>
        </g>
        <g transform="matrix(1,-5.55112e-17,0,1,-147.504,-92.2856)">
            <path d="M929.601,3200.97C933.923,3179.78 933.611,3159.35 929.274,3139.56C927.501,3140.31 925.858,3142.35 924.362,3143.4C922.524,3144.7 920.906,3145.08 919.535,3146.88C924.572,3144.64 927.337,3145.34 928.175,3148.53C921.646,3152.61 918.048,3155.41 918.115,3156.61C921.798,3153.97 925.221,3152.53 928.026,3154.01C922.034,3157.78 918.471,3160.68 917.945,3162.48C923.26,3159.37 926.655,3158.81 927.731,3161.34C920.425,3166.43 917.742,3168.99 917.638,3170.14C922.915,3166.33 926.327,3165.39 927.958,3167.21C921.093,3172.6 918.217,3175.93 917.565,3178.12C922.969,3173.9 926.433,3172.89 927.792,3175.37C921.317,3180.91 918.47,3183.99 918.107,3185.39C922.157,3182.51 925.248,3181.54 927.285,3182.67C922.222,3186.29 919.694,3189.13 918.237,3191.64C922.248,3189.29 925.514,3188.09 927.215,3189.3C923.484,3192.05 921.226,3194.57 920.105,3196.93C923.266,3194.53 925.748,3193.64 927.483,3194.41C923.707,3197.04 921.646,3199.01 920.257,3200.71L929.601,3200.97Z" style="fill:rgb(0,187,51);stroke:rgb(9,120,0);stroke-width:1.35px;"/>
        </g>
        <g transform="matrix(1,-5.55112e-17,0,1,-147.504,-92.2856)">
            <path d="M915.968,3136.6L914.114,3136.66L914.441,3127.98L934.078,3128.02L934.254,3136.75L932.689,3136.6L915.968,3136.6Z" style="fill:white;stroke:rgb(112,0,255);stroke-width:1.35px;stroke-linecap:round;stroke-linejoin:miter;stroke-miterlimit:1.5;"/>
        </g>
        <g transform="matrix(1.10655,-1.66533e-16,-2.22045e-16,1.21945,-247.621,-776.922)">
            <path d="M918.848,3111.5C923.621,3109.63 928.404,3109.53 933.197,3111.51C935.167,3112.1 936.638,3113 937.675,3114.18C938.9,3115.57 939.519,3117.34 939.638,3119.43C938.986,3124.02 937.128,3125.79 934.773,3126.58L917.133,3126.51C913.833,3124.74 912.391,3122.33 912.384,3119.43C912.922,3116.04 914.565,3113.16 918.848,3111.5Z" style="fill:white;stroke:rgb(112,0,255);stroke-width:1.14px;stroke-linecap:round;stroke-linejoin:miter;stroke-miterlimit:1.5;"/>
        </g>
        <g transform="matrix(0.657224,-5.55112e-17,-1.11022e-16,0.972502,173.824,-6.77633)">
            <path d="M918.051,3109.75C927.414,3110.34 933.895,3113.07 937.427,3117.99C936.782,3123.61 930.233,3126.29 918.051,3126.16L918.051,3109.75Z" style="fill:rgb(0,187,51);stroke:rgb(9,120,0);stroke-width:1.52px;"/>
        </g>
        <g transform="matrix(1,-5.55112e-17,0,1,-147.504,-92.2856)">
            <path d="M924.693,3129.35L924.693,3134.93C929.511,3134.58 932.636,3133.68 933.024,3131.92C932.213,3130.36 929.247,3129.58 924.693,3129.35Z" style="fill:rgb(0,187,51);stroke:rgb(9,120,0);stroke-width:1.35px;stroke-linecap:round;stroke-linejoin:miter;stroke-miterlimit:1.5;"/>
        </g>
        <g transform="matrix(1,-5.55112e-17,0,1,-147.504,-92.2856)">
            <path d="M912.647,3230.74C906.7,3227.93 899.456,3226.48 891.948,3229.05L887.723,3220.35C907.827,3211.11 930.691,3209.39 961.001,3219.84L957.547,3229.13C949.366,3226.71 942.117,3227.13 935.908,3230.74" style="fill:white;stroke:rgb(112,0,255);stroke-width:1.35px;stroke-linecap:round;stroke-linejoin:miter;stroke-miterlimit:1.5;"/>
        </g>
        <g transform="matrix(1,-5.55112e-17,0,1,-147.504,-92.2856)">
            <path d="M912.647,3212.69L912.647,3204.31L935.908,3204.33L935.908,3212.69C927.071,3211.81 919.073,3211.61 912.647,3212.69Z" style="fill:white;stroke:rgb(112,0,255);stroke-width:1.35px;stroke-linecap:round;stroke-linejoin:miter;stroke-miterlimit:1.5;"/>
        </g>
        <g transform="matrix(0.64206,-8.32667e-17,0,0.337165,186.296,2036.03)">
            <rect x="919.387" y="3197.52" width="13.171" height="10.979" style="fill:rgb(0,187,51);stroke:rgb(9,120,0);stroke-width:3.03px;"/>
        </g>
        <g transform="matrix(1,-5.55112e-17,0,1,-147.504,-92.2856)">
            <path d="M923.886,3229.93C928.128,3229.97 932.111,3228.46 935.908,3225.84C942.452,3224.12 949.461,3223.76 956.715,3224.12C955.044,3220.48 945.536,3217.57 924.362,3215.73L924.362,3227.15C918.902,3225.19 913.273,3224.13 908.402,3224.18C911.292,3225.38 913.404,3225.42 916.265,3226.47C918.561,3227.32 921.612,3229.2 923.886,3229.93Z" style="fill:rgb(0,187,51);stroke:rgb(9,120,0);stroke-width:1.35px;"/>
        </g>
        <g transform="matrix(1,-5.55112e-17,0,1,-147.504,-92.2856)">
            <path d="M931.626,3231.72L930.733,3396.56C932.84,3386.06 934.558,3329.98 935.908,3230.74" style="fill:rgb(73,73,73);stroke:rgb(112,0,255);stroke-width:1.35px;stroke-linecap:round;stroke-linejoin:miter;stroke-miterlimit:1.5;"/>
        </g>
        <g transform="matrix(1,-5.55112e-17,0,1,-147.504,-92.2856)">
            <path d="M924.64,3461.1C920.2,3443.78 915.644,3396.61 912.647,3230.82C919.845,3233.78 927.473,3234.42 935.908,3230.74C934.718,3327.3 932.555,3411.35 924.64,3461.1Z" style="fill:white;stroke:rgb(112,0,255);stroke-width:1.35px;stroke-linecap:round;stroke-linejoin:miter;stroke-miterlimit:1.5;"/>
        </g>
        <g transform="matrix(1,-5.55112e-17,0,1,-147.504,-92.2856)">
            <path d="M927.418,3233.33L926.111,3402.14L921.385,3233.53L927.418,3233.33Z" style="fill:none;stroke:rgb(112,0,255);stroke-width:1.35px;stroke-linecap:round;stroke-linejoin:miter;stroke-miterlimit:1.5;"/>
        </g>
        <g transform="matrix(1,-5.55112e-17,0,1,-147.504,-92.2856)">
            <path d="M926.111,3402.14L921.385,3233.53L924.278,3233.53L926.111,3402.14Z" style="fill:rgb(0,187,51);stroke:rgb(9,120,0);stroke-width:1.35px;"/>
        </g>
    </g>
</svg>
